<svg id="Capa_1" data-name="Capa 1" xmlns="http://www.w3.org/2000/svg" viewBox="0 0 60 60"><defs><style>.cls-1{fill:#306;}.cls-2{fill:#93f;}</style></defs><title>APRENDER</title><path class="cls-1" d="M57,14.69H54.5V12.38a1,1,0,0,0-.9-1L39.43,9.7a16.71,16.71,0,0,0-9.24,1.53A16.71,16.71,0,0,0,21,9.7L6.78,11.36a1,1,0,0,0-.91,1v2.31H3.43a1,1,0,0,0-1,1V49.16a1,1,0,0,0,1,1H57a1,1,0,0,0,1-1V15.71A1,1,0,0,0,57,14.69Zm-17.76-3,13.27,1.55V43.69l-13-1.53a16.68,16.68,0,0,0-8.22,1.09V13A14.69,14.69,0,0,1,39.19,11.73Zm-18,0a14.69,14.69,0,0,1,8,1.28V43.25A16.7,16.7,0,0,0,22.93,42a16.44,16.44,0,0,0-2,.12l-13,1.53V13.28ZM55.93,48.14H4.45V16.73H5.87V44.84a1,1,0,0,0,1.15,1l14.17-1.66a14.73,14.73,0,0,1,8.53,1.55,1,1,0,0,0,.94,0,14.73,14.73,0,0,1,8.53-1.55l14.17,1.66h.12a1,1,0,0,0,.68-.26,1,1,0,0,0,.34-.76V16.73h1.43V48.14Z"/><path class="cls-2" d="M33.57,17.48a14.88,14.88,0,0,1,5.6-.41l10.64,1.25h.12a1,1,0,0,0,.12-2L39.41,15a16.93,16.93,0,0,0-6.38.47,1,1,0,1,0,.54,2Z"/><path class="cls-2" d="M10.41,18.32h.12l10.64-1.25a14.67,14.67,0,0,1,5.6.42A1,1,0,0,0,28,16.77a1,1,0,0,0-.72-1.26A16.9,16.9,0,0,0,20.93,15L10.29,16.29a1,1,0,0,0-.9,1.13A1,1,0,0,0,10.41,18.32Z"/><path class="cls-2" d="M33.57,22.17a14.88,14.88,0,0,1,5.6-.41L49.81,23h.12a1,1,0,0,0,.12-2L39.41,19.73A16.55,16.55,0,0,0,33,20.2a1,1,0,1,0,.54,2Z"/><path class="cls-2" d="M10.41,23h.12l10.64-1.25a14.87,14.87,0,0,1,5.6.41,1,1,0,1,0,.54-2,16.9,16.9,0,0,0-6.38-.47L10.29,21a1,1,0,0,0-.9,1.13A1,1,0,0,0,10.41,23Z"/><path class="cls-2" d="M33.57,26.86a14.49,14.49,0,0,1,5.6-.41L49.81,27.7h.12a1,1,0,0,0,1-.9,1,1,0,0,0-.9-1.14L39.41,24.42a16.55,16.55,0,0,0-6.38.47,1,1,0,1,0,.54,2Z"/><path class="cls-2" d="M10.41,27.7h.12l10.64-1.25a14.87,14.87,0,0,1,5.6.41,1,1,0,1,0,.54-2,17.11,17.11,0,0,0-6.38-.48L10.29,25.66a1,1,0,0,0,.12,2Z"/><path class="cls-2" d="M33.57,31.55a14.69,14.69,0,0,1,5.6-.42l10.64,1.25h.12a1,1,0,0,0,1-.9,1,1,0,0,0-.9-1.14L39.41,29.1a16.75,16.75,0,0,0-6.38.48,1,1,0,1,0,.54,2Z"/><path class="cls-2" d="M10.41,32.39h.12l10.64-1.25a14.87,14.87,0,0,1,5.6.42,1,1,0,1,0,.54-2,16.91,16.91,0,0,0-6.38-.48L10.29,30.35a1,1,0,0,0,.12,2Z"/><path class="cls-2" d="M50.05,35,39.41,33.79a16.73,16.73,0,0,0-6.38.48,1,1,0,1,0,.54,2,14.69,14.69,0,0,1,5.6-.42l10.64,1.25h.12a1,1,0,0,0,1-.9A1,1,0,0,0,50.05,35Z"/><path class="cls-2" d="M10.41,37.08h.12l10.64-1.25a14.87,14.87,0,0,1,5.6.42,1,1,0,1,0,.54-2,16.91,16.91,0,0,0-6.38-.48L10.29,35a1,1,0,0,0,.12,2Z"/></svg>