<svg id="Capa_1" data-name="Capa 1" xmlns="http://www.w3.org/2000/svg" viewBox="0 0 60 60"><defs><style>.cls-1{fill:#306;}.cls-2{fill:#93f;}.cls-3{fill:none;stroke:#93f;stroke-linecap:round;stroke-miterlimit:10;stroke-width:1.26px;}</style></defs><title>CONSTRUIR</title><path class="cls-1" d="M51.37,49.46a.71.71,0,0,0-.29-.51l-3.24-2.21L35,33.85l1-1a.67.67,0,0,0,.22-.51.71.71,0,0,0-.22-.52L34.21,30l2-2.21a5,5,0,0,0,1.71.6,5.89,5.89,0,0,0,1,.07,1.5,1.5,0,0,1,1.33.51,1.18,1.18,0,0,0-.44,1,1.62,1.62,0,0,0,.44,1.11l2.57,2.57a2,2,0,0,0,1.55.67,1.88,1.88,0,0,0,1.55-.74l5.22-5.23a2,2,0,0,0,.67-1.54,2.1,2.1,0,0,0-.67-1.55l-2.57-2.58a1.49,1.49,0,0,0-1-.44,1.83,1.83,0,0,0-1,.44,1.22,1.22,0,0,1-.59-1.25,3.18,3.18,0,0,0-.15-1.1,5.17,5.17,0,0,0-1.47-2.87l-2.65-2.66a12.11,12.11,0,0,0-4.27-3.16c-4.27-2-8.62-1.62-14.95,1.25a.66.66,0,0,0-.44.81.71.71,0,0,0,.73.59h1c3.24,0,4.93,0,7.88,2.94a3.5,3.5,0,0,1,.17,4.73.66.66,0,0,0-.39.21L29,24.75,14.78,10.51a3,3,0,0,0-4.27,0l-2,2a3,3,0,0,0,0,4.27L23.1,31.35,8.53,47.62a3.12,3.12,0,0,0-.89,2.21A2.92,2.92,0,0,0,8.53,52l1,1a3,3,0,0,0,2.06.81,3.25,3.25,0,0,0,2.13-.89L28.38,36.55,29.8,38a.71.71,0,0,0,.52.22.63.63,0,0,0,.44-.15l1.1-1.1L44.75,49.83,47,53.07a.71.71,0,0,0,.51.29l3.54.45h.07a1.83,1.83,0,0,0,.59-.15.83.83,0,0,0,.22-.59ZM32.53,16c-2.36-2.29-4.13-3-6.11-3.24,4.19-1.33,7.28-1.25,10.38.14a10.21,10.21,0,0,1,3.9,2.88l2.65,2.65a3.42,3.42,0,0,1,1,2.06,4.42,4.42,0,0,1,.07.88,2.71,2.71,0,0,0,1,2.28,1.63,1.63,0,0,0,1.11.45,1.23,1.23,0,0,0,1-.45l2.57,2.58a.66.66,0,0,1,.22.52.65.65,0,0,1-.22.51L44.9,32.53a.73.73,0,0,1-1,0L41.29,30a1,1,0,0,0,.37-1,1.59,1.59,0,0,0-.45-1.1,2.69,2.69,0,0,0-2.28-1,4.42,4.42,0,0,1-.88-.07,3.31,3.31,0,0,1-2.06-1l-3.17-3.16A4.87,4.87,0,0,0,32.53,16Zm-23-.3a1.47,1.47,0,0,1-.45-1.1,1.51,1.51,0,0,1,.45-1.11l2-2a1.63,1.63,0,0,1,1.11-.45,1.59,1.59,0,0,1,1.1.45L28,25.83,27,27l-2.88,3.21Zm3.16,36.15a1.46,1.46,0,0,1-1.1.44,1.42,1.42,0,0,1-1-.44l-1-1a1.43,1.43,0,0,1-.45-1,1.54,1.54,0,0,1,.52-1.17L31.9,23.81,35,26.93l-2.18,2.44a1.1,1.1,0,0,0-.18.14L27.81,35a.86.86,0,0,0-.15.22Zm17.6-15.46-1-1,1.46-1.66,2.39-2.66,1.23,1.16ZM34,34.88,46.29,47.33l-1,1L32.89,35.91ZM48,52l-1.7-2.5,1.26-1.25L50,49.9l.29,2.36Z"/><path class="cls-2" d="M25.09,26.05,12.57,13.53a.73.73,0,0,0-1,1L24.06,27.08a.66.66,0,0,0,.52.22.65.65,0,0,0,.51-.22A.7.7,0,0,0,25.09,26.05Z"/><path class="cls-3" d="M34.29,13.81a9.61,9.61,0,0,1,2.27.83,14.38,14.38,0,0,1,3.36,2.79c.69.67,1.53,1.5,2.49,2.46"/></svg>