<svg id="Capa_1" data-name="Capa 1" xmlns="http://www.w3.org/2000/svg" viewBox="0 0 50 50"><defs><style>.cls-1{fill:#34de8e;}</style></defs><title>corazon</title><path class="cls-1" d="M43.89,12a11.72,11.72,0,0,0-15.56,0l-2.92,2.68L22.49,12A11.73,11.73,0,0,0,6.92,12,10.73,10.73,0,0,0,6.92,28L25.41,45,43.89,28A10.72,10.72,0,0,0,43.89,12ZM41.16,25.39,25.41,40.08,9.66,25.39A7,7,0,0,1,7.46,20,6.29,6.29,0,0,1,9.4,14.85a7.79,7.79,0,0,1,5.31-2A8.35,8.35,0,0,1,20,15.36l5.4,4.7,5.39-4.7a8.38,8.38,0,0,1,5.31-2.51,7.81,7.81,0,0,1,5.31,2A6.32,6.32,0,0,1,43.36,20,7.08,7.08,0,0,1,41.16,25.39Z"/></svg>