<?xml version="1.0" encoding="utf-8"?>
<!-- Generator: Adobe Illustrator 22.0.0, SVG Export Plug-In . SVG Version: 6.00 Build 0)  -->
<svg version="1.1" id="Layer_1" xmlns="http://www.w3.org/2000/svg"  x="0px" y="0px"
	 viewBox="0 0 60 60" style="enable-background:new 0 0 60 60;" xml:space="preserve">
<style type="text/css">
	.st0{fill:#330066;}
	.st1{fill:#34DE8E;}
</style>
<g>
	<path class="st0" d="M56.2,0.2l-5.6,4.2L45,17.5h-4.5l-1.8-3.8h1.2c2.1,0,3.8-1.7,3.8-3.8V6h1.9V0.2h-5.8V6h1.9v3.9
		c0,1.1-0.9,1.9-1.9,1.9h-2l-2.5-5.3L38.3,5l-9.6-4.1l-2.3,7.9c-0.1-4.7-3.9-8.5-8.6-8.5c-4.8,0-8.7,3.9-8.7,8.7
		c0,2.9,1.5,5.6,3.8,7.2v1.4h-2.3l-0.1,0.8c-0.5,2.4-0.5,4.9-0.1,7.4L3.8,37.4L11,39v12.1h9.6v8.7h23.1V46.4
		c6.7-4.8,10.6-12.4,10.6-20.6l0-3.5c0-1.3-0.1-2.7-0.4-4l-0.1-0.8h-1.9l4.3-10.4L56.2,0.2L56.2,0.2z M41.8,4.1V2.1h1.9v1.9H41.8z
		 M38.4,17.5h-3.6L33,13.7h3.6L38.4,17.5z M29.9,3.5l3.8,1.6l-0.9,0.4l2.9,6.2h-3.6l-2.3-5.1L28.9,7L29.9,3.5z M32.6,17.5h-4.3v-1.9
		c0-1.1,0.9-1.9,1.9-1.9h0.6v0L32.6,17.5z M28.8,9.2l1.2,2.6c-2,0.1-3.6,1.8-3.6,3.8v1.9h-3.8v-1.4c1.9-1.3,3.2-3.3,3.7-5.5
		L28.8,9.2z M11,8.9c0-3.7,3-6.7,6.7-6.7s6.7,3,6.7,6.7c0,2.4-1.3,4.6-3.4,5.8L20.6,15v2.5h-1.9v-5.9c1.1-0.4,1.9-1.5,1.9-2.7
		c0-1.6-1.3-2.9-2.9-2.9s-2.9,1.3-2.9,2.9c0,1.3,0.8,2.3,1.9,2.7v5.9h-1.9V15l-0.5-0.3C12.3,13.5,11,11.3,11,8.9z M17.8,9.8
		c-0.5,0-1-0.4-1-1c0-0.5,0.4-1,1-1c0.5,0,1,0.4,1,1S18.3,9.8,17.8,9.8z M52.2,19.4c0.1,1,0.2,1.9,0.2,2.9l0,3.5
		c0,7.7-3.8,14.9-10.2,19.3l-0.4,0.3v12.5H22.6v-8.7H13V37.5l-6.2-1.4l5.6-10l-0.1-0.3c-0.4-2.1-0.4-4.4-0.1-6.3H13h9.6L52.2,19.4
		L52.2,19.4z M49.8,17.5h-2.7l4.8-11.2L54,7.4L49.8,17.5z M54.3,5.4l-1.1-0.5l1.1-0.8V5.4z"/>
	<path class="st1" d="M19.7,25.2c-1.6,0-2.9-1-2.9-2.9h-1.9c0,2.9,2.2,4.8,4.8,4.8s4.8-1.9,4.8-4.8h-1.9
		C22.6,24.2,21.3,25.2,19.7,25.2z"/>
</g>
</svg>
