<svg id="Capa_1" data-name="Capa 1" xmlns="http://www.w3.org/2000/svg" viewBox="0 0 60 60"><defs><style>.cls-1{fill:#306;}.cls-2{fill:#93f;}</style></defs><title>MEJORAR</title><path class="cls-1" d="M32.16,22.82h0L4,51l3.87,3.87L44.6,18.11l-3.86-3.87ZM7.84,52.3,6.55,51,32.8,24.76l1.29,1.29ZM35.38,24.76l-1.29-1.29,6.65-6.65L42,18.11Z"/><path class="cls-2" d="M40.8,11.5a.91.91,0,0,0,.91-.91V4.21a.91.91,0,1,0-1.82,0v6.38A.91.91,0,0,0,40.8,11.5Z"/><path class="cls-2" d="M40.8,24.26a.91.91,0,0,0-.91.91v6.38a.91.91,0,0,0,1.82,0V25.17A.91.91,0,0,0,40.8,24.26Z"/><path class="cls-2" d="M54.47,17H48.09a.91.91,0,0,0,0,1.82h6.38a.91.91,0,1,0,0-1.82Z"/><path class="cls-2" d="M27.13,18.79h6.38a.91.91,0,0,0,0-1.82H27.13a.91.91,0,0,0,0,1.82Z"/><path class="cls-2" d="M46.27,13.32a.89.89,0,0,0,.64-.27l4.52-4.51a.91.91,0,0,0-1.29-1.29l-4.51,4.51a.91.91,0,0,0,0,1.29A.89.89,0,0,0,46.27,13.32Z"/><path class="cls-2" d="M46.91,22.7a.89.89,0,0,0-1.28,0,.91.91,0,0,0,0,1.29l4.51,4.51a.89.89,0,0,0,.64.27.92.92,0,0,0,.65-1.56Z"/><path class="cls-2" d="M34.69,13.05a.91.91,0,0,0,1.29,0,.92.92,0,0,0,0-1.29L31.47,7.25a.92.92,0,0,0-1.29,0,.91.91,0,0,0,0,1.29Z"/></svg>