<svg id="Capa_1" data-name="Capa 1" xmlns="http://www.w3.org/2000/svg" viewBox="0 0 60 60"><defs><style>.cls-1{fill:#306;}.cls-2{fill:#93f;}</style></defs><title>PREDECIR</title><path class="cls-1" d="M46.22,43.58A23.91,23.91,0,1,0,6.11,26a23.56,23.56,0,0,0,7.76,17.58,3,3,0,0,0-2.31,2.88l-.82,8.17v.09a3,3,0,0,0,3,3H46.38a3,3,0,0,0,3-3l-.82-8.26A3,3,0,0,0,46.22,43.58ZM7.85,26a22.28,22.28,0,1,1,44.56,0,22,22,0,0,1-8.17,17.16,1.14,1.14,0,0,0-.25.33H16.26c-.08-.08-.08-.16-.24-.24A22.29,22.29,0,0,1,7.85,26ZM46.38,56H13.79a1.31,1.31,0,0,1-1.32-1.32l.82-8.17v-.09a1.31,1.31,0,0,1,1.32-1.32h31a1.29,1.29,0,0,1,1.24,1.32l.82,8.26A1.31,1.31,0,0,1,46.38,56Z"/><path class="cls-1" d="M24.27,8.67a.85.85,0,0,0-1.07-.49A16.36,16.36,0,0,0,13.05,19.56a.83.83,0,0,0,.57,1h.17a.88.88,0,0,0,.82-.57A14.79,14.79,0,0,1,23.77,9.75.87.87,0,0,0,24.27,8.67Z"/><polygon class="cls-2" points="35.57 19.65 36.22 18.75 33.41 16.75 35.42 13.95 34.52 13.31 32.52 16.11 29.72 14.1 29.07 15 31.87 17 29.87 19.81 30.77 20.45 32.77 17.65 35.57 19.65"/><polygon class="cls-2" points="49.15 7.89 45.05 8.53 44.41 4.43 43.09 4.63 43.74 8.73 39.63 9.38 39.84 10.69 43.94 10.05 44.58 14.15 45.9 13.95 45.26 9.84 49.36 9.2 49.15 7.89"/><polygon class="cls-2" points="45.33 23.9 47.37 22.05 49.21 24.09 49.87 23.5 48.02 21.46 50.05 19.61 49.46 18.96 47.42 20.81 45.58 18.77 44.92 19.36 46.77 21.4 44.74 23.25 45.33 23.9"/></svg>