<svg xmlns="http://www.w3.org/2000/svg" width="55" height="19" viewBox="0 0 55 19">
    <path fill="#CBCBCB" fill-rule="evenodd" d="M10.189 9.101c1.46.796 2.468 2.308 2.468 4.272 0 2.972-2.442 5.545-5.44 5.545H0V.345h7.084A5.028 5.028 0 0 1 12.1 5.36c0 1.698-.955 2.892-1.91 3.741zM6.633 2.866H2.706v5.12h3.927c1.566 0 2.654-1.14 2.654-2.6 0-1.406-1.062-2.52-2.654-2.52zM2.706 16.292h4.06c1.857 0 3.078-1.3 3.078-2.92 0-1.697-1.22-2.944-3.078-2.944h-4.06v5.864zm23.483 2.626l-1.566-3.927h-6.845l-1.566 3.927h-2.866L21.2 0l7.854 18.918H26.19zM21.2 6.315l-2.467 6.262h4.908l-2.44-6.262zm20.272 12.603h-11.78l7.482-15.973h-6.475v-2.6h10.8l-7.536 15.92h7.509v2.653zm13.001 0h-11.78l7.482-15.973h-6.474v-2.6H54.5l-7.536 15.92h7.51v2.653z"/>
</svg>
