<svg xmlns="http://www.w3.org/2000/svg" width="85" height="28" viewBox="0 0 85 28">
    <path fill="#CBCBCB" fill-rule="evenodd" d="M5.443 4.765c.405.218.722.517.951.898.23.382.344.822.344 1.321 0 .78-.269 1.43-.806 1.947-.537.517-1.194.776-1.969.776H0V.177h3.673c.757 0 1.398.252 1.922.756.524.503.786 1.132.786 1.885 0 .826-.313 1.475-.938 1.947zm-1.77-3.118H1.519v2.505h2.154c.334 0 .616-.12.845-.36.23-.241.344-.538.344-.892s-.115-.651-.344-.892c-.229-.24-.51-.36-.845-.36zm.29 6.59c.353 0 .65-.13.892-.389.242-.258.363-.574.363-.946s-.12-.687-.363-.946a1.174 1.174 0 0 0-.892-.388H1.52v2.668h2.444zm7.227 1.647c-1.03 0-1.872-.302-2.524-.906-.651-.603-.977-1.413-.977-2.43V.177h1.52v6.276c0 .58.164 1.044.495 1.389.33.345.825.517 1.486.517.66 0 1.156-.172 1.486-.517.33-.345.495-.808.495-1.389V.177h1.52v6.371c0 1.017-.326 1.827-.978 2.43-.652.604-1.493.906-2.523.906zm6.566-1.675h4.095v1.498h-5.615V.177h5.549v1.498h-4.03v2.477h3.7v1.484h-3.7V8.21zM28.589.177h1.519v9.53h-1.189l-4.36-6.467v6.467H23.04V.177h1.19l4.359 6.467V.177zm7.504 9.707c-1.34 0-2.473-.479-3.402-1.437-.93-.957-1.394-2.126-1.394-3.505 0-1.38.465-2.548 1.394-3.506C33.62.48 34.754 0 36.093 0c1.338 0 2.472.479 3.401 1.436.93.958 1.394 2.126 1.394 3.506s-.464 2.548-1.394 3.505c-.929.958-2.063 1.437-3.401 1.437zm0-1.525c.924 0 1.702-.325 2.331-.973.63-.65.945-1.464.945-2.444s-.315-1.795-.945-2.444c-.63-.649-1.407-.973-2.331-.973-.925 0-1.702.324-2.332.973-.63.65-.945 1.464-.945 2.444s.315 1.795.945 2.444c.63.648 1.407.973 2.332.973zm8.719 1.525c-.89 0-1.645-.209-2.266-.627a3.279 3.279 0 0 1-1.301-1.715l1.308-.79c.37 1.071 1.136 1.607 2.299 1.607.572 0 1.001-.116 1.288-.347a1.11 1.11 0 0 0 .429-.906c0-.39-.154-.687-.462-.891-.309-.204-.855-.43-1.639-.674-.44-.136-.797-.263-1.07-.381a4.93 4.93 0 0 1-.865-.497 2.011 2.011 0 0 1-.68-.797c-.15-.317-.225-.69-.225-1.116 0-.844.29-1.513.872-2.008C43.081.247 43.781 0 44.6 0c.74 0 1.388.186 1.943.558.554.372.982.885 1.281 1.539l-1.281.762c-.388-.89-1.035-1.334-1.942-1.334-.44 0-.793.106-1.057.32-.265.213-.397.501-.397.864 0 .354.135.633.403.837.269.205.756.42 1.46.647.352.118.61.207.773.266.163.059.392.152.687.279.295.127.517.254.667.38.15.128.31.287.482.477s.293.409.364.654c.07.245.105.522.105.83 0 .862-.301 1.545-.905 2.05-.603.503-1.393.755-2.371.755zm13.528-.177l-.647-1.92h-3.937l-.648 1.92h-1.65l3.355-9.53h1.823l3.342 9.53H58.34zm-4.082-3.39h2.933l-1.467-4.302-1.466 4.302zM60.77.177h1.52v9.53h-1.52V.177zm8.442 9.53l-1.955-3.472H65.46v3.472h-1.52V.177h3.7c.828 0 1.53.297 2.107.892.577.594.865 1.318.865 2.171 0 .608-.17 1.164-.508 1.668-.34.504-.782.869-1.328 1.096l2.1 3.703h-1.664zm-3.752-8.06v3.186h2.18c.405 0 .748-.154 1.03-.463.282-.309.423-.685.423-1.13 0-.445-.141-.821-.423-1.13a1.343 1.343 0 0 0-1.03-.463h-2.18zm7.9 6.562h4.095v1.498h-5.614V.177h5.548v1.498h-4.029v2.477h3.7v1.484h-3.7V8.21zm8.363 1.675c-.89 0-1.645-.209-2.266-.627a3.279 3.279 0 0 1-1.301-1.715l1.308-.79c.37 1.071 1.136 1.607 2.298 1.607.573 0 1.002-.116 1.288-.347a1.11 1.11 0 0 0 .43-.906c0-.39-.154-.687-.463-.891-.308-.204-.854-.43-1.638-.674-.44-.136-.797-.263-1.07-.381a4.93 4.93 0 0 1-.865-.497 2.011 2.011 0 0 1-.68-.797c-.15-.317-.225-.69-.225-1.116 0-.844.29-1.513.872-2.008.581-.495 1.281-.742 2.1-.742.74 0 1.387.186 1.942.558.555.372.982.885 1.282 1.539l-1.282.762c-.387-.89-1.035-1.334-1.942-1.334-.44 0-.792.106-1.057.32-.264.213-.396.501-.396.864 0 .354.134.633.403.837.269.205.755.42 1.46.647.352.118.61.207.773.266.163.059.392.152.687.279.295.127.517.254.667.38.15.128.31.287.482.477s.293.409.363.654c.07.245.106.522.106.83 0 .862-.302 1.545-.905 2.05-.603.503-1.394.755-2.371.755zm-56.972 2.153v1.498h-2.69v8.032h-1.569v-8.032h-2.702v-1.498h6.96zm4.886 9.707c-1.383 0-2.554-.479-3.514-1.436-.96-.958-1.44-2.126-1.44-3.506s.48-2.548 1.44-3.505c.96-.958 2.131-1.437 3.514-1.437s2.555.48 3.515 1.437c.96.957 1.44 2.126 1.44 3.505 0 1.38-.48 2.548-1.44 3.506-.96.957-2.132 1.436-3.515 1.436zm0-1.525c.956 0 1.759-.324 2.41-.973.65-.649.975-1.463.975-2.444 0-.98-.325-1.794-.976-2.443-.65-.65-1.453-.974-2.409-.974-.955 0-1.758.325-2.409.974-.65.649-.976 1.463-.976 2.443s.326 1.795.976 2.444c.65.649 1.454.973 2.41.973zm20.66-1.016v1.173c0 2.172-.656 3.931-1.965 5.278-1.31 1.347-3.002 2.02-5.076 2.02-2.21 0-4.043-.763-5.496-2.291-1.453-1.528-2.18-3.393-2.18-5.594 0-2.216.72-4.09 2.16-5.626 1.44-1.535 3.223-2.303 5.352-2.303 1.337 0 2.558.323 3.664.967 1.105.645 1.964 1.503 2.578 2.574l-2.415 1.477c-.34-.622-.856-1.13-1.545-1.52-.69-.391-1.457-.587-2.303-.587-1.364 0-2.486.475-3.366 1.423-.88.949-1.32 2.147-1.32 3.595 0 1.434.446 2.618 1.34 3.552.894.934 2.077 1.4 3.551 1.4 1.092 0 1.996-.256 2.712-.77.716-.514 1.204-1.22 1.463-2.118h-4.339v-2.65h7.184zm8.473 8.471c-2.074 0-3.831-.763-5.27-2.291-1.44-1.528-2.16-3.4-2.16-5.616 0-2.215.72-4.087 2.16-5.615 1.439-1.528 3.196-2.292 5.27-2.292 2.074 0 3.834.764 5.28 2.292 1.447 1.528 2.17 3.4 2.17 5.615 0 2.216-.723 4.088-2.17 5.616-1.446 1.528-3.206 2.291-5.28 2.291zm0-2.932c1.31 0 2.408-.467 3.295-1.401.887-.934 1.33-2.125 1.33-3.574 0-1.448-.443-2.642-1.33-3.584-.887-.941-1.985-1.412-3.295-1.412-1.31 0-2.408.47-3.295 1.412s-1.33 2.136-1.33 3.584c0 1.449.443 2.64 1.33 3.574.887.934 1.985 1.4 3.295 1.4z"/>
</svg>
