<svg xmlns="http://www.w3.org/2000/svg" width="1028" height="261" viewBox="0 0 1028 261">
    <g fill="none" fill-rule="evenodd">
        <g transform="translate(631 216)">
            <rect width="190" height="44" x=".5" y=".5" fill="#FFF" stroke="#FFF" rx="4"/>
            <text fill="#755FF3" font-family="Gilroy-Regular" font-size="18" letter-spacing="-.27" transform="translate(42 14)">
                <tspan x="4.904" y="14">Contact me</tspan>
            </text>
        </g>
        <text fill="#FFF" font-family="Gilroy-Regular" font-size="18" letter-spacing="-.27" transform="translate(630 159)">
            <tspan x="45" y="14">I want to be contacted by phone</tspan>
        </text>
        <g transform="translate(630 160)">
            <rect width="27" height="13" x="1.5" y="1.5" stroke="#FFF" opacity=".2" rx="6.5"/>
            <rect width="15" height="15" x=".5" y=".5" fill="#C3B9FF" stroke="#755FF3" rx="7.5"/>
        </g>
        <path stroke="#FFF" d="M632 111.5h395"/>
        <text fill="#FFF" font-family="Gilroy-Regular" font-size="18" letter-spacing="-.27" opacity=".3" transform="translate(631 79)">
            <tspan x="0" y="14">email</tspan>
        </text>
        <text fill="#FFF" font-family="Gilroy-Regular" font-size="12" letter-spacing="-.18" opacity=".3" transform="translate(631 79)">
            <tspan x="0" y="51">+54 11 5743 8238</tspan>
        </text>
        <g stroke="#FFF">
            <path d="M1021.5 81.136l6.364 6.364-6.364 6.364M1028 87.5h-19"/>
        </g>
        <g>
            <path stroke="#FFF" d="M632 31.5h395"/>
            <text fill="#FFF" font-family="Gilroy-Regular" font-size="18" letter-spacing="-.27" opacity=".3" transform="translate(631 -1)">
                <tspan x="0" y="14">Name</tspan>
            </text>
            <text fill="#FFF" font-family="Gilroy-Regular" font-size="12" letter-spacing="-.18" opacity=".3" transform="translate(631 -1)">
                <tspan x="0" y="51">we can call you John Doe if you leave it blank</tspan>
            </text>
        </g>
        <text fill="#FFF" font-family="Gilroy-SemiBold" font-size="24" font-weight="500" letter-spacing="-.48" transform="translate(0 -10)">
            <tspan x="0" y="19">Got an idea?</tspan>  <tspan x="0" y="55" font-size="64">let us a contact,</tspan> <tspan x="0" y="119" font-size="64">we call you.</tspan>
        </text>
    </g>
</svg>
