<svg xmlns="http://www.w3.org/2000/svg" width="980" height="279" viewBox="0 0 980 279">
    <g fill="none" fill-rule="evenodd">
        <g fill="#FFF">
            <text font-family="Gilroy-Regular" font-size="36" letter-spacing=".02" transform="translate(735 -1)">
                <tspan x="0" y="28">social</tspan>
            </text>
            <g fill-opacity=".3">
                <path d="M759.41 82.667c0-1.927-1.772-3.667-3.735-3.667h-14.94C738.77 79 737 80.74 737 82.667v14.666c0 1.927 1.771 3.667 3.735 3.667h7.47V92.69h-2.74v-3.666h2.74v-1.429c0-2.464 1.884-4.683 4.201-4.683h3.02v3.667h-3.02c-.33 0-.715.394-.715.984v1.46h3.734v3.667h-3.734V101h3.984c1.963 0 3.734-1.74 3.734-3.667V82.667zM803.387 83.18a9.32 9.32 0 0 1-2.64.71 4.545 4.545 0 0 0 2.02-2.495 9.38 9.38 0 0 1-2.92 1.095 4.623 4.623 0 0 0-3.355-1.425c-2.539 0-4.597 2.02-4.597 4.512 0 .353.04.698.119 1.028a13.133 13.133 0 0 1-9.475-4.716 4.417 4.417 0 0 0-.622 2.27c0 1.565.813 2.947 2.045 3.754a4.654 4.654 0 0 1-2.083-.565v.056c0 2.185 1.586 4.01 3.688 4.425a4.744 4.744 0 0 1-1.212.158c-.297 0-.583-.028-.865-.084.585 1.794 2.283 3.1 4.293 3.135a9.335 9.335 0 0 1-5.709 1.928c-.371 0-.736-.022-1.096-.062a13.166 13.166 0 0 0 7.046 2.031c8.457 0 13.079-6.877 13.079-12.84l-.015-.584a9.099 9.099 0 0 0 2.3-2.332M845.377 94.929V85.07c0-2.271-1.882-4.12-4.196-4.12h-10.04c-2.315 0-4.197 1.849-4.197 4.12v9.858c0 2.271 1.882 4.12 4.196 4.12h10.041c2.314 0 4.196-1.849 4.196-4.12zM841.181 79c3.41 0 6.184 2.723 6.184 6.071v9.858c0 3.347-2.773 6.071-6.184 6.071h-10.04c-3.411 0-6.185-2.723-6.185-6.071V85.07c0-3.348 2.774-6.071 6.184-6.071h10.041zm-5.02 14.716c2.087 0 3.786-1.666 3.786-3.716 0-2.049-1.699-3.717-3.786-3.717-2.088 0-3.786 1.668-3.786 3.717 0 2.05 1.699 3.716 3.786 3.716zm0-9.385c3.183 0 5.774 2.543 5.774 5.669 0 3.126-2.59 5.669-5.774 5.669s-5.775-2.543-5.775-5.67c0-3.125 2.59-5.668 5.775-5.668zm6.016-1.655c.385 0 .761.152 1.031.419.272.265.427.635.427 1.013 0 .375-.155.745-.427 1.012a1.485 1.485 0 0 1-1.03.42c-.384 0-.76-.154-1.03-.42a1.435 1.435 0 0 1-.429-1.012c0-.378.157-.748.428-1.013a1.479 1.479 0 0 1 1.03-.419zM976.589 97.415h-3.378v-5.311c0-1.335-.497-2.252-1.722-2.252-.94 0-1.49.618-1.732 1.217-.09.204-.112.501-.112.8v5.546h-3.387s.044-9.001 0-9.93h3.387v1.407c.445-.675 1.25-1.642 3.047-1.642 2.23 0 3.897 1.42 3.897 4.47v5.695zM962.692 86.13h-.023c-1.136 0-1.87-.769-1.87-1.718 0-.976.757-1.718 1.914-1.718 1.159 0 1.872.742 1.893 1.718.001.95-.733 1.718-1.914 1.718zm-1.69 11.285h3.385v-9.93h-3.384v9.93zM978.343 79h-19.09c-.918 0-1.661.708-1.661 1.578v18.849c0 .866.743 1.573 1.66 1.573h19.09c.918 0 1.659-.707 1.659-1.573v-18.85c0-.869-.74-1.577-1.658-1.577zM886.792 96.532a9.392 9.392 0 0 1-3.858 2.292v-1.649c0-.866-.302-1.504-.909-1.911.38-.036.728-.086 1.046-.151a7.998 7.998 0 0 0 1.006-.28c.355-.12.672-.266.952-.434.282-.169.552-.387.81-.656.26-.268.476-.573.65-.913.176-.34.315-.748.417-1.225.103-.475.153-1 .153-1.573 0-1.11-.368-2.055-1.105-2.836.336-.86.3-1.794-.11-2.804l-.273-.032c-.19-.022-.53.057-1.023.236-.492.18-1.045.473-1.658.88a10.236 10.236 0 0 0-2.702-.353c-.94 0-1.839.117-2.691.354a9.486 9.486 0 0 0-1.101-.64 5.688 5.688 0 0 0-.83-.343 2.9 2.9 0 0 0-.926-.123.745.745 0 0 0-.11.021c-.408 1.017-.444 1.952-.109 2.804-.737.78-1.105 1.726-1.105 2.836a7.5 7.5 0 0 0 .153 1.573c.103.477.24.885.416 1.225a3.983 3.983 0 0 0 1.46 1.569c.282.168.6.313.953.435.354.121.69.214 1.007.279a9.89 9.89 0 0 0 1.044.15c-.597.401-.896 1.039-.896 1.912v1.68a9.387 9.387 0 0 1-3.968-2.324 9.205 9.205 0 0 1-2.018-2.936A9.032 9.032 0 0 1 870.73 90c0-1.249.248-2.458.738-3.596a9.205 9.205 0 0 1 2.018-2.937 9.387 9.387 0 0 1 2.991-1.98 9.502 9.502 0 0 1 3.663-.726c1.27 0 2.503.244 3.662.726a9.403 9.403 0 0 1 2.992 1.98 9.202 9.202 0 0 1 2.017 2.937c.49 1.138.74 2.347.74 3.596 0 1.248-.25 2.457-.74 3.595a9.193 9.193 0 0 1-2.018 2.937M880.14 79c-6.189 0-11.205 4.925-11.205 11s5.016 11 11.205 11c6.188 0 11.205-4.925 11.205-11s-5.017-11-11.205-11M919.994 84.979v12.077l-5.152-2.414c-.023-.016-.06-.072-.067-.072V82.532l5.22 2.447zM934.16 87.5v9.556l-4.796-2.247 4.796-7.309zm-.427-2.727l-5.725 8.727-3.523-5.365 3.865-5.885 5.383 2.523zm-8.286 8.2l-3.59-1.681v-3.786l3.59 5.468zm10.403-9.045c-.1-.166-.245-.3-.426-.388l-6.435-3.015c-.743-.34-1.669-.082-2.109.588l-3.503 5.335-1.648-2.512a1.043 1.043 0 0 0-.407-.362l-6.293-2.948c-.505-.237-1.04-.222-1.463.04-.415.257-.654.71-.654 1.24V94.57c0 .693.471 1.415 1.117 1.716l5.514 2.585c.265.123.535.187.802.187.289 0 .567-.078.802-.224.451-.279.71-.774.71-1.356v-4.16l11.65 5.458c.645.308 1.32.308 1.819.002.442-.272.696-.744.696-1.295V84.496c0-.2-.06-.396-.172-.568z"/>
            </g>
            <text font-family="Gilroy-Regular" font-size="36" letter-spacing=".02" transform="translate(4 -1)">
                <tspan x="416" y="28">join ubykuo</tspan>
            </text>
            <text font-family="Gilroy-Regular" font-size="36" letter-spacing=".02" transform="translate(4 -1)">
                <tspan x="0" y="28">ubykuo</tspan>
            </text>
        </g>
        <text fill="#FFF" font-family="Gilroy-SemiBold" font-size="20" font-weight="500" letter-spacing="-.3" opacity=".5" transform="translate(0 -1)">
            <tspan x="0" y="86">Argentina, Buenos Aires</tspan>  <tspan x="0" y="103" font-family="Gilroy-Regular" font-size="18" font-weight="normal">Esmeralda 950 CABA</tspan> <tspan x="0" y="123" font-family="Gilroy-Regular" font-size="18" font-weight="normal">+541151284568</tspan>   <tspan x="0" y="166">España, Madrid</tspan>  <tspan x="0" y="186" font-family="Gilroy-Regular" font-size="18" font-weight="normal">Paseo de la Castellana 43</tspan> <tspan x="0" y="204" font-family="Gilroy-Regular" font-size="18" font-weight="normal">+34919011269</tspan>  <tspan x="0" y="242">United States, California</tspan>  <tspan x="0" y="262" font-family="Gilroy-Regular" font-size="18" font-weight="normal">200 Spectrum Center Dr #300 CA-92618</tspan> <tspan x="0" y="280" font-family="Gilroy-Regular" font-size="18" font-weight="normal">+19495229234</tspan>
        </text>
        <text fill="#FFF" font-family="Gilroy-Regular" font-size="20" letter-spacing=".6" opacity=".5" transform="translate(0 -1)">
            <tspan x="735" y="144">hello@ubykuo.co</tspan> <tspan x="895.58" y="144">m</tspan>
        </text>
        <text fill="#FFF" font-family="Gilroy-Regular" font-size="20" letter-spacing="-.3" opacity=".5" transform="translate(0 -1)">
            <tspan x="420" y="86">We are looking for you, check </tspan> <tspan x="420" y="106">our open positions.</tspan>
        </text>
        <g transform="translate(420 138)">
            <rect width="182" height="36" x=".5" y=".5" stroke="#FFF" stroke-opacity=".2" rx="4"/>
            <text fill="#FFF" font-family="Gilroy-Regular" font-size="18" letter-spacing=".03">
                <tspan x="16" y="26">Careers Site</tspan>
            </text>
            <g stroke="#FFF">
                <path d="M161 13.343L166.657 19 161 24.657M166 18.5h-19"/>
            </g>
        </g>
    </g>
</svg>
