<svg xmlns="http://www.w3.org/2000/svg" xmlns:xlink="http://www.w3.org/1999/xlink" width="1280" height="461" viewBox="0 0 1280 461">
    <defs>
        <rect id="b" width="247" height="224" x="259" y="79" rx="3.4"/>
        <filter id="a" width="108.5%" height="109.4%" x="-4.3%" y="-3.3%" filterUnits="objectBoundingBox">
            <feOffset dy="3" in="SourceAlpha" result="shadowOffsetOuter1"/>
            <feGaussianBlur in="shadowOffsetOuter1" result="shadowBlurOuter1" stdDeviation="3"/>
            <feComposite in="shadowBlurOuter1" in2="SourceAlpha" operator="out" result="shadowBlurOuter1"/>
            <feColorMatrix in="shadowBlurOuter1" values="0 0 0 0 0 0 0 0 0 0 0 0 0 0 0 0 0 0 0 0"/>
        </filter>
        <rect id="d" width="247" height="224" y="79" rx="3.4"/>
        <filter id="c" width="108.5%" height="109.4%" x="-4.3%" y="-3.3%" filterUnits="objectBoundingBox">
            <feOffset dy="3" in="SourceAlpha" result="shadowOffsetOuter1"/>
            <feGaussianBlur in="shadowOffsetOuter1" result="shadowBlurOuter1" stdDeviation="3"/>
            <feComposite in="shadowBlurOuter1" in2="SourceAlpha" operator="out" result="shadowBlurOuter1"/>
            <feColorMatrix in="shadowBlurOuter1" values="0 0 0 0 0 0 0 0 0 0 0 0 0 0 0 0 0 0 0 0"/>
        </filter>
        <rect id="f" width="290" height="263" x="467" y="59" rx="4"/>
        <filter id="e" width="114.5%" height="116%" x="-7.2%" y="-5.7%" filterUnits="objectBoundingBox">
            <feOffset dy="6" in="SourceAlpha" result="shadowOffsetOuter1"/>
            <feGaussianBlur in="shadowOffsetOuter1" result="shadowBlurOuter1" stdDeviation="6"/>
            <feComposite in="shadowBlurOuter1" in2="SourceAlpha" operator="out" result="shadowBlurOuter1"/>
            <feColorMatrix in="shadowBlurOuter1" values="0 0 0 0 0 0 0 0 0 0 0 0 0 0 0 0 0 0 0.0295233243 0"/>
        </filter>
    </defs>
    <g fill="none" fill-rule="evenodd">
        <path fill="#F7D6F0" d="M630 0h650v461H630z"/>
        <g transform="translate(-42)">
            <use fill="#000" filter="url(#a)" xlink:href="#b"/>
            <rect width="246" height="223" x="259.5" y="79.5" fill="#FFF" stroke="#E4E4E4" stroke-linejoin="square" rx="3.4"/>
        </g>
        <g transform="translate(-42)">
            <use fill="#000" filter="url(#c)" xlink:href="#d"/>
            <rect width="246" height="223" x=".5" y="79.5" fill="#FFF" stroke="#E4E4E4" stroke-linejoin="square" rx="3.4"/>
        </g>
        <g fill="#333">
            <text font-family="Gilroy-Bold" font-size="42" font-weight="bold" letter-spacing="-.23" transform="translate(753 123)">
                <tspan x="0" y="32">who we ar</tspan> <tspan x="197.598" y="32">e</tspan>
            </text>
            <text font-family="Gilroy-Regular" font-size="20" letter-spacing="-.3" transform="translate(753 123)">
                <tspan x="5" y="97">A young​, dynamic​ and experienced​ software </tspan> <tspan x="5" y="123">design and development team backed​ by </tspan> <tspan x="5" y="149">40 years of industry and business knowledge </tspan> <tspan x="5" y="175">advice and guidance.</tspan>
            </text>
        </g>
        <path fill="#FFF" d="M0 376h85v85H0z"/>
        <path fill="#3EFF9A" d="M0 376h630v85H0z"/>
        <path fill="#333" d="M630 376h85v85h-85z"/>
        <g stroke="#D8D8D8">
            <path d="M675.5 412.136l6.364 6.364-6.364 6.364M682 418.5h-19"/>
        </g>
        <g stroke="#333">
            <path d="M584.5 424.864l-6.364-6.364 6.364-6.364M578 418.5h19"/>
        </g>
        <text fill="#333" font-family="Gilroy-Regular" font-size="20" letter-spacing="-.11" transform="translate(-42)">
            <tspan x="85" y="424">Adoption Tea</tspan> <tspan x="206.74" y="424">m</tspan>
        </text>
        <g transform="translate(-42)">
            <use fill="#000" filter="url(#e)" xlink:href="#f"/>
            <rect width="289" height="262" x="467.5" y="59.5" fill="#FFF" stroke="#E4E4E4" stroke-linejoin="square" rx="4"/>
        </g>
    </g>
</svg>
