<svg xmlns="http://www.w3.org/2000/svg" viewBox="0 0 49 35"><defs><style>.cls-1{fill:#755ff3;}</style></defs><title>ubykuo</title><g><path class="cls-1" d="M66.29,47.35H-17.29v-59.7H66.29ZM34.66,15.1A17.44,17.44,0,0,0,17.42,0H0V10a34.45,34.45,0,0,0,21.7,7.65A34.28,34.28,0,0,0,34.66,15.1Zm.15,1.5a30.26,30.26,0,0,1-17.39,5.47A30.34,30.34,0,0,1,0,16.59v.91a17.54,17.54,0,0,0,.85,5.4,28.56,28.56,0,0,0,13.7,3.48A28.69,28.69,0,0,0,34.82,18c0-.17,0-.35,0-.52S34.82,16.9,34.81,16.6ZM14.7,30.69A25.51,25.51,0,0,1,3.62,28.18a17.4,17.4,0,0,0,30.74-6.65A25.64,25.64,0,0,1,14.7,30.69ZM43.56,3a.4.4,0,0,0-.77,0L42,5.89a2.61,2.61,0,0,1-1.44,1.46l-2.81.82a.43.43,0,0,0,0,.83l2.83.81A2.61,2.61,0,0,1,42,11.23l.85,2.83a.44.44,0,0,0,.85,0l.74-2.75a2.6,2.6,0,0,1,1.46-1.5L48.69,9a.43.43,0,0,0,0-.82l-2.83-.81a2.61,2.61,0,0,1-1.45-1.45Z"/></g></svg>
