<svg xmlns="http://www.w3.org/2000/svg" width="149" height="17" viewBox="0 0 149 17">
    <path fill="#CBCBCB" fill-rule="evenodd" d="M0 0h7.216c1.16 0 2.107.168 2.84.504.733.336 1.298.756 1.695 1.26s.669 1.054.814 1.65c.145.595.217 1.145.217 1.649 0 .503-.072 1.05-.217 1.637a4.286 4.286 0 0 1-.814 1.638c-.397.504-.962.92-1.695 1.249-.733.328-1.68.492-2.84.492H2.863v6.277H0V0zm2.863 7.743h4.192c.321 0 .65-.046.985-.138a2.82 2.82 0 0 0 .928-.446c.283-.207.512-.482.687-.825.176-.344.264-.775.264-1.294 0-.535-.077-.978-.23-1.329a2.123 2.123 0 0 0-.618-.836 2.2 2.2 0 0 0-.893-.424A4.85 4.85 0 0 0 7.1 2.337H2.863v5.406zM14.867 0h2.611v16.356h-2.611V0zm15.256 13.721c0 .321.042.55.126.688.084.137.248.206.493.206h.274c.107 0 .23-.015.367-.046v1.81a7.651 7.651 0 0 1-.802.206 4.74 4.74 0 0 1-.847.091c-.535 0-.978-.106-1.329-.32-.351-.214-.58-.588-.687-1.123-.52.504-1.157.87-1.913 1.1a7.532 7.532 0 0 1-2.188.343 5.365 5.365 0 0 1-1.534-.217 4.028 4.028 0 0 1-1.295-.642 3.074 3.074 0 0 1-.893-1.076c-.221-.435-.332-.943-.332-1.524 0-.733.133-1.328.4-1.786a2.97 2.97 0 0 1 1.054-1.077c.436-.26.924-.447 1.466-.561a17.003 17.003 0 0 1 1.638-.264 13.4 13.4 0 0 1 1.352-.194 6.342 6.342 0 0 0 1.134-.195c.328-.092.588-.233.779-.424.19-.19.286-.477.286-.859 0-.336-.08-.61-.24-.824a1.614 1.614 0 0 0-.596-.493c-.237-.115-.5-.19-.79-.229a6.333 6.333 0 0 0-.825-.057c-.733 0-1.336.152-1.81.458-.473.305-.74.779-.802 1.42h-2.611c.046-.764.23-1.397.55-1.901.32-.504.729-.909 1.225-1.214a5.014 5.014 0 0 1 1.684-.642 10.024 10.024 0 0 1 1.924-.183c.58 0 1.153.061 1.718.183a4.88 4.88 0 0 1 1.524.596 3.3 3.3 0 0 1 1.088 1.065c.275.435.412.966.412 1.592v6.093zm-2.611-3.298c-.397.26-.886.416-1.466.47-.58.053-1.161.133-1.741.24-.275.046-.543.11-.802.195-.26.084-.489.198-.687.343a1.508 1.508 0 0 0-.47.573c-.115.237-.172.523-.172.859 0 .29.084.534.252.733.168.199.37.355.607.47.237.114.497.194.78.24.282.046.537.069.766.069.29 0 .604-.038.94-.115.336-.076.653-.206.95-.39.298-.182.546-.415.745-.698.198-.282.298-.63.298-1.042v-1.947zm5.314-5.91H35.3v1.74l.046.046a4.379 4.379 0 0 1 1.558-1.546 4.15 4.15 0 0 1 2.13-.561c1.298 0 2.321.336 3.07 1.008.748.672 1.122 1.68 1.122 3.024v8.132h-2.611V8.91c-.031-.932-.23-1.607-.596-2.027-.367-.42-.94-.63-1.718-.63-.443 0-.84.08-1.191.24-.351.16-.65.382-.894.665a3.123 3.123 0 0 0-.572.996 3.557 3.557 0 0 0-.206 1.214v6.987h-2.612V4.513zM56.856 0h3.046l6.3 16.356h-3.07l-1.534-4.33h-6.529l-1.535 4.33H50.58L56.856 0zm-1.008 9.85h4.994L58.39 2.818h-.07L55.849 9.85zm11.43-5.337h2.475v1.65h.068c.199-.291.413-.558.642-.803a3.5 3.5 0 0 1 .767-.618 3.88 3.88 0 0 1 .974-.401c.366-.1.786-.149 1.26-.149.717 0 1.385.16 2.004.481.618.32 1.058.817 1.317 1.49a5.272 5.272 0 0 1 1.535-1.444c.58-.351 1.306-.527 2.176-.527 1.252 0 2.226.305 2.92.916.696.611 1.043 1.634 1.043 3.07v8.178h-2.611V9.438c0-.474-.016-.905-.046-1.294a2.643 2.643 0 0 0-.264-1.008 1.498 1.498 0 0 0-.652-.653c-.29-.153-.688-.23-1.192-.23-.885 0-1.527.276-1.924.825-.397.55-.595 1.329-.595 2.337v6.94h-2.612V8.752c0-.825-.149-1.447-.447-1.867-.297-.42-.843-.63-1.637-.63a2.426 2.426 0 0 0-1.798.802 2.98 2.98 0 0 0-.573.962 3.658 3.658 0 0 0-.218 1.305v7.033H67.28V4.513zm27.947 4.879a4.211 4.211 0 0 0-.263-1.191 3.174 3.174 0 0 0-.596-.997 2.95 2.95 0 0 0-.916-.687 2.7 2.7 0 0 0-1.202-.263c-.459 0-.875.08-1.249.24-.374.16-.695.382-.962.665a3.286 3.286 0 0 0-.641.996c-.16.382-.249.794-.264 1.237h6.093zm-6.093 1.718c0 .458.065.901.195 1.329.13.427.324.801.584 1.122.26.32.588.577.985.767.397.191.87.287 1.42.287.764 0 1.379-.164 1.844-.493.466-.328.814-.82 1.043-1.477h2.474a4.924 4.924 0 0 1-1.925 2.99 5.24 5.24 0 0 1-1.592.778 6.409 6.409 0 0 1-1.844.263c-.931 0-1.756-.152-2.474-.458a5.114 5.114 0 0 1-1.82-1.282 5.444 5.444 0 0 1-1.123-1.97c-.252-.764-.378-1.604-.378-2.52 0-.84.133-1.638.4-2.394a6.128 6.128 0 0 1 1.146-1.993 5.477 5.477 0 0 1 1.798-1.363c.703-.336 1.497-.504 2.383-.504.931 0 1.767.195 2.508.584.74.39 1.355.905 1.844 1.546a6.26 6.26 0 0 1 1.065 2.211c.222.832.279 1.691.172 2.577h-8.705zm10.583-6.597h2.451v2.29h.046c.077-.32.225-.633.447-.939.221-.305.489-.584.802-.836.313-.252.66-.454 1.042-.607a3.12 3.12 0 0 1 1.168-.229c.306 0 .516.008.63.023l.355.046v2.52c-.183-.031-.37-.058-.561-.08a4.709 4.709 0 0 0-.561-.035c-.443 0-.86.088-1.249.263-.39.176-.729.436-1.02.78-.29.343-.518.767-.686 1.27-.168.505-.252 1.085-.252 1.742v5.635h-2.612V4.513zM107.733 0h2.611v2.474h-2.611V0zm0 4.513h2.611v11.843h-2.611V4.513zm13.332 3.963c-.107-.733-.401-1.287-.882-1.661-.481-.374-1.088-.561-1.821-.561-.336 0-.695.057-1.077.171a2.555 2.555 0 0 0-1.054.642c-.32.313-.587.748-.801 1.306-.214.557-.321 1.286-.321 2.187 0 .489.057.978.172 1.466.114.489.298.924.55 1.306.252.382.576.691.973.928.397.236.878.355 1.443.355.764 0 1.394-.237 1.89-.71.496-.474.806-1.138.928-1.993h2.611c-.244 1.542-.828 2.722-1.752 3.539-.924.817-2.15 1.225-3.677 1.225-.931 0-1.752-.156-2.462-.47a5.22 5.22 0 0 1-1.798-1.282 5.448 5.448 0 0 1-1.111-1.936 7.563 7.563 0 0 1-.378-2.428c0-.886.122-1.718.366-2.497a5.72 5.72 0 0 1 1.1-2.027 5.145 5.145 0 0 1 1.82-1.351c.726-.329 1.578-.493 2.555-.493.687 0 1.34.088 1.958.263.619.176 1.169.44 1.65.79.48.352.874.795 1.18 1.33.305.534.488 1.168.55 1.9h-2.612zm14.546 5.245c0 .321.042.55.126.688.084.137.248.206.493.206h.274c.107 0 .23-.015.367-.046v1.81a7.651 7.651 0 0 1-.802.206 4.74 4.74 0 0 1-.847.091c-.535 0-.978-.106-1.329-.32-.351-.214-.58-.588-.687-1.123-.52.504-1.157.87-1.913 1.1a7.532 7.532 0 0 1-2.188.343 5.365 5.365 0 0 1-1.534-.217 4.028 4.028 0 0 1-1.295-.642 3.074 3.074 0 0 1-.893-1.076c-.222-.435-.332-.943-.332-1.524 0-.733.133-1.328.4-1.786a2.97 2.97 0 0 1 1.054-1.077c.436-.26.924-.447 1.466-.561a17.003 17.003 0 0 1 1.638-.264 13.4 13.4 0 0 1 1.352-.194 6.342 6.342 0 0 0 1.134-.195c.328-.092.588-.233.779-.424.19-.19.286-.477.286-.859 0-.336-.08-.61-.24-.824a1.614 1.614 0 0 0-.596-.493c-.237-.115-.5-.19-.79-.229a6.333 6.333 0 0 0-.825-.057c-.733 0-1.336.152-1.81.458-.473.305-.74.779-.802 1.42h-2.611c.046-.764.23-1.397.55-1.901.32-.504.729-.909 1.225-1.214a5.014 5.014 0 0 1 1.684-.642 10.024 10.024 0 0 1 1.924-.183c.58 0 1.153.061 1.718.183a4.88 4.88 0 0 1 1.524.596 3.3 3.3 0 0 1 1.088 1.065c.275.435.412.966.412 1.592v6.093zM133 10.423c-.397.26-.886.416-1.466.47-.58.053-1.161.133-1.741.24-.275.046-.543.11-.802.195-.26.084-.489.198-.687.343a1.508 1.508 0 0 0-.47.573c-.115.237-.172.523-.172.859 0 .29.084.534.252.733.168.199.37.355.607.47.237.114.497.194.78.24.282.046.537.069.766.069.29 0 .604-.038.94-.115.336-.076.652-.206.95-.39.298-.182.546-.415.745-.698.198-.282.298-.63.298-1.042v-1.947zm7.284 2.13c.076.764.367 1.298.87 1.604.505.305 1.108.458 1.81.458.245 0 .523-.02.836-.057.313-.039.607-.111.882-.218s.5-.263.676-.47c.176-.206.256-.477.24-.813a1.154 1.154 0 0 0-.366-.825 2.54 2.54 0 0 0-.882-.515 8.545 8.545 0 0 0-1.225-.332 57.89 57.89 0 0 1-1.398-.298 13.115 13.115 0 0 1-1.409-.39 4.546 4.546 0 0 1-1.214-.618 2.858 2.858 0 0 1-.859-.996c-.213-.405-.32-.905-.32-1.5 0-.642.156-1.18.47-1.616a3.6 3.6 0 0 1 1.19-1.053 5.187 5.187 0 0 1 1.604-.562 9.42 9.42 0 0 1 1.684-.16c.61 0 1.195.065 1.752.195.557.13 1.061.34 1.512.63a3.7 3.7 0 0 1 1.122 1.134c.298.465.485 1.027.562 1.683h-2.726c-.123-.626-.409-1.046-.86-1.26-.45-.213-.965-.32-1.546-.32-.183 0-.4.015-.653.045a3.02 3.02 0 0 0-.71.172 1.494 1.494 0 0 0-.56.367c-.154.16-.23.37-.23.63 0 .32.11.58.332.779.222.198.512.362.87.492.36.13.768.24 1.226.332.458.092.932.191 1.42.298.474.107.94.237 1.398.39.458.152.866.358 1.225.618.36.26.65.588.87.985.222.397.333.886.333 1.466 0 .703-.16 1.298-.481 1.787-.32.489-.737.886-1.248 1.191a5.679 5.679 0 0 1-1.707.664 8.635 8.635 0 0 1-1.856.206c-.748 0-1.439-.084-2.073-.251a4.832 4.832 0 0 1-1.649-.768 3.708 3.708 0 0 1-1.1-1.283c-.267-.511-.408-1.118-.423-1.82h2.611z"/>
</svg>
