<svg xmlns="http://www.w3.org/2000/svg" xmlns:xlink="http://www.w3.org/1999/xlink" width="49" height="35" viewBox="0 0 49 35">
    <defs>
        <path id="a" d="M21.428 17.309A34.147 34.147 0 0 1 0 9.793V0h17.194c8.694 0 15.884 6.457 17.029 14.838a34.146 34.146 0 0 1-12.795 2.471zm12.956-.415c0 .169-.004.342-.008.511-5.144 5.077-12.211 8.212-20.007 8.212A28.353 28.353 0 0 1 .836 22.202 17.151 17.151 0 0 1 0 16.894V16a30.003 30.003 0 0 0 17.194 5.383 29.986 29.986 0 0 0 17.169-5.366c.013.292.021.585.021.877zM33.352 21a17.1 17.1 0 0 1-4.575 8.196 17.12 17.12 0 0 1-12.154 5.036c-5.547 0-10.476-2.623-13.623-6.7a25.335 25.335 0 0 0 10.938 2.467c7.784 0 14.748-3.493 19.414-8.999zm9.733-18.718l.839 2.813c.262.65.78 1.166 1.432 1.423l2.795.797c.405.115.406.689.002.806l-2.777.806a2.55 2.55 0 0 0-1.437 1.47l-.736 2.709c-.115.42-.708.43-.836.013l-.847-2.781a2.553 2.553 0 0 0-1.418-1.387l-2.792-.798c-.412-.118-.414-.701-.002-.821l2.775-.807a2.554 2.554 0 0 0 1.423-1.432l.822-2.81c.11-.376.645-.378.757-.001z"/>
    </defs>
    <g fill="none" fill-rule="evenodd">
        <mask id="b" fill="#fff">
            <use xlink:href="#a"/>
        </mask>
        <use fill="#333" xlink:href="#a"/>
        <g fill="#FFF" mask="url(#b)">
            <path d="M0 0h48v34H0z"/>
        </g>
    </g>
</svg>
