<?xml version="1.0" encoding="utf-8"?>
<!-- Generator: Adobe Illustrator 19.0.0, SVG Export Plug-In . SVG Version: 6.00 Build 0)  -->
<svg version="1.1" id="Layer_1" xmlns="http://www.w3.org/2000/svg" xmlns:xlink="http://www.w3.org/1999/xlink" x="0px" y="0px"
	 viewBox="0 0 140 50" style="enable-background:new 0 0 140 50;" xml:space="preserve">
<style type="text/css">
	.st0{fill:#D0D2D3;}
	.st1{fill:#38E090;}
</style>
<path id="XMLID_279_" class="st0" d="M31.3,28.3c-3.1,0-5-2.3-5-5.3v-8.4h2.6v8c0,1.8,0.8,3.4,3,3.4c2.1,0,3.1-1.4,3.1-3.4v-8h2.6
	v10.8c0,1,0.1,2,0.1,2.5h-2.5c-0.1-0.3-0.1-1-0.1-1.6C34.5,27.6,32.8,28.3,31.3,28.3"/>
<path id="XMLID_167_" class="st0" d="M42,27.9v-20h2.6v8.6c0.6-1.2,2.2-2.3,4.4-2.3c4,0,6.1,3.1,6.1,7c0,3.9-2.2,7.1-6.2,7.1
	c-2,0-3.5-0.9-4.3-2.3v1.9H42z M48.5,16.5c-2.3,0-3.9,1.8-3.9,4.7c0,2.9,1.7,4.7,3.9,4.7c2.4,0,3.9-1.9,3.9-4.7
	C52.4,18.3,50.9,16.5,48.5,16.5"/>
<polygon id="XMLID_162_" class="st0" points="58.3,33.4 61.6,26.4 55.9,14.6 58.9,14.6 63,23.8 67,14.6 69.8,14.6 61.2,33.4 "/>
<polygon id="XMLID_160_" class="st0" points="78.5,20.2 84.3,27.9 81,27.9 76.7,22 74.8,23.9 74.8,27.9 72.3,27.9 72.3,7.9 
	74.8,7.9 74.8,20.5 80.6,14.6 84.2,14.6 "/>
<path id="XMLID_146_" class="st0" d="M91.4,28.3c-3.1,0-5-2.3-5-5.3v-8.4h2.6v8c0,1.8,0.8,3.4,3,3.4c2.1,0,3.1-1.4,3.1-3.4v-8h2.6
	v10.8c0,1,0.1,2,0.1,2.5h-2.5c-0.1-0.3-0.1-1-0.1-1.6C94.6,27.6,93,28.3,91.4,28.3"/>
<path id="XMLID_141_" class="st0" d="M114.6,21.2c0,4.1-2.8,7.1-6.8,7.1c-4,0-6.8-3-6.8-7.1c0-4,2.8-7,6.8-7
	C111.8,14.2,114.6,17.2,114.6,21.2 M111.9,21.2c0-3.1-1.9-4.7-4.1-4.7c-2.2,0-4.1,1.7-4.1,4.7c0,3.1,1.9,4.7,4.1,4.7
	C110,26,111.9,24.3,111.9,21.2"/>
<polygon id="XMLID_123_" class="st1" points="70.4,43.8 64.8,39.2 66.7,36.8 70.4,39.9 74.1,36.8 76.1,39.2 "/>
</svg>
