<?xml version="1.0" encoding="utf-8"?>
<!-- Generator: Adobe Illustrator 19.2.0, SVG Export Plug-In . SVG Version: 6.00 Build 0)  -->
<svg version="1.1" id="Capa_1" xmlns="http://www.w3.org/2000/svg" xmlns:xlink="http://www.w3.org/1999/xlink" x="0px" y="0px"
	 viewBox="0 0 30 30" style="enable-background:new 0 0 30 30;" xml:space="preserve">
<style type="text/css">
	.st0{fill:#6F5EE7;}
	.st1{fill:#330066;}
	.st2{fill:#38E090;}
	.st3{fill:#E6E7E8;}
</style>
<path class="st0" d="M15,0.1c8.3,0,15,6.7,15,15c0,8.3-6.7,15-15,15c-8.3,0-15-6.7-15-15C0,6.8,6.7,0.1,15,0.1 M8.1,24.5
	c3.6,2.7,8.2,2.7,11.1,1.5c-0.6-2.9-1.3-5.7-2.3-8.5C14.4,17.8,9.4,21.7,8.1,24.5 M6.1,22.6c2.5-3.6,5.7-6.2,9.8-7.6
	c-0.2-0.5-0.4-0.9-0.6-1.3c-0.1-0.2-0.2-0.2-0.3-0.2c-1.4,0.3-2.8,0.7-4.2,1c-2.4,0.4-4.8,0.5-7.2,0.5c-0.1,0-0.2,0-0.3,0
	C3.1,17.1,4.5,21,6.1,22.6 M3.6,12.2c3.5,0.1,7-0.3,10.4-1.3c-1.2-2.3-2.5-4.4-4.2-6.4C6.7,6.2,4.6,8.8,3.6,12.2 M12.5,3.6
	c1.6,2,2.9,4.2,4,6.4c2.2-1,4.2-2.2,5.7-4.1C19.4,3.7,16.1,2.9,12.5,3.6 M19.5,16.8c0.9,2.6,1.6,5.2,2.2,7.9
	c2.6-1.9,4.2-4.4,4.9-7.5C24.2,16.7,21.8,16.5,19.5,16.8 M24.2,7.8c-1.8,2.1-4,3.5-6.5,4.6c0.3,0.6,0.5,1.2,0.7,1.7
	c0,0,0.1,0.1,0.2,0.1c0.3,0,0.7-0.1,1-0.1c2-0.2,4.1-0.1,6.1,0.2c0.3,0.1,0.6,0.1,0.9,0.2C26.5,12,25.7,9.8,24.2,7.8"/>
</svg>
