<?xml version="1.0" encoding="utf-8"?>
<!-- Generator: Adobe Illustrator 19.0.0, SVG Export Plug-In . SVG Version: 6.00 Build 0)  -->
<svg version="1.1" id="Layer_1" xmlns="http://www.w3.org/2000/svg" xmlns:xlink="http://www.w3.org/1999/xlink" x="0px" y="0px"
	 viewBox="0 0 30 30" style="enable-background:new 0 0 30 30;" xml:space="preserve">
<style type="text/css">
	.st0{fill:#330066;}
</style>
<g id="XMLID_187_">
	<g id="XMLID_39_">
		<path id="XMLID_41_" class="st0" d="M22.8,0H7.2C3.2,0,0,3.2,0,7.2v15.5c0,4,3.2,7.2,7.2,7.2h15.5c4,0,7.2-3.2,7.2-7.2V7.2
			C30,3.2,26.8,0,22.8,0 M14.5,27.3H7.2c-2.5,0-4.5-2-4.5-4.5V7.2c0-2.5,2-4.5,4.5-4.5h15.5c2.5,0,4.5,2,4.5,4.5v15.5
			c0,2.5-2,4.5-4.5,4.5h-4.1"/>
		<path id="XMLID_40_" class="st0" d="M19.8,10.8h3V7.7h-3c-2.7,0-4.9,2.2-4.9,4.9v3.5h-3.4v3.1h3.4v8.1H18v-8.1h4l0.5-3.1H18v-3.5
			C18,11.6,18.8,10.8,19.8,10.8"/>
	</g>
</g>
</svg>
