<?xml version="1.0" encoding="utf-8"?>
<!-- Generator: Adobe Illustrator 19.2.0, SVG Export Plug-In . SVG Version: 6.00 Build 0)  -->
<svg version="1.1" id="Capa_1" xmlns="http://www.w3.org/2000/svg" xmlns:xlink="http://www.w3.org/1999/xlink" x="0px" y="0px"
	 viewBox="0 0 30 30" style="enable-background:new 0 0 30 30;" xml:space="preserve">
<style type="text/css">
	.st0{fill:#6F5EE7;}
	.st1{fill:#330066;}
	.st2{fill:#38E090;}
	.st3{fill:#E6E7E8;}
</style>
<g>
	<path class="st0" d="M15-0.1c-8.3,0-15,6.7-15,15c0,8.3,6.7,15,15,15c8.3,0,15-6.7,15-15C30,6.6,23.3-0.1,15-0.1L15-0.1z
		 M25.8,20.5c-1.4,2.7-3.8,4.7-6.6,5.8l0,0c-0.1-1.2-0.2-2.6-0.2-3.2c0-0.5-0.1-1.6-1.2-2.3c4.3-0.4,6.4-2.8,6.5-5.9
		c0.1-1.8-0.6-3.4-1.9-4.7c0.1-1.4,0-3-0.1-3.7c-1-0.3-3.3,0.9-3.9,1.4c-1.3-0.5-4.6-0.7-6.6,0c-1.4-1-3-1.6-3.9-1.4
		C7.2,8.3,7.7,10,7.8,10.2c-1,1-2.5,2.1-2.1,4.6c0.6,3.6,3.2,5.6,7.3,6c-0.9,0.2-1,0.8-1.1,1.1C9.1,23,8.4,21.2,8,20.7
		c-1.2-1.4-2.2-1-2.3-1c-0.1,0-0.1,0.1-0.1,0.2c0.1,0.3,0.7,0.6,0.7,0.6c0.9,0.6,1.2,1.8,1.4,2.1c1.2,2,4.1,1.2,4.1,1.2
		c0,0.2,0,1.7,0,2.8c-5.2-1.4-9-6.1-9-11.7C2.8,8.2,8.3,2.7,15,2.7s12.2,5.5,12.2,12.2C27.2,16.9,26.7,18.8,25.8,20.5 M19.2,26.3"/>
</g>
</svg>
