<?xml version="1.0" encoding="utf-8"?>
<!-- Generator: Adobe Illustrator 19.2.0, SVG Export Plug-In . SVG Version: 6.00 Build 0)  -->
<svg version="1.1" id="Capa_1" xmlns="http://www.w3.org/2000/svg" xmlns:xlink="http://www.w3.org/1999/xlink" x="0px" y="0px"
	 viewBox="0 0 30 30" style="enable-background:new 0 0 30 30;" xml:space="preserve">
<style type="text/css">
	.st0{fill:#6F5EE7;}
	.st1{fill:#330066;}
	.st2{fill:#38E090;}
	.st3{fill:#E6E7E8;}
</style>
<g>
	<path class="st3" d="M15,0C6.7,0,0,6.7,0,15c0,8.3,6.7,15,15,15c8.3,0,15-6.7,15-15C30,6.7,23.3,0,15,0L15,0z M25.8,20.6
		c-1.4,2.7-3.8,4.7-6.6,5.8l0,0c-0.1-1.2-0.2-2.6-0.2-3.2c0-0.5-0.1-1.6-1.2-2.3c4.3-0.4,6.4-2.8,6.5-5.9c0.1-1.8-0.6-3.4-1.9-4.7
		c0.1-1.4,0-3-0.1-3.7c-1-0.3-3.3,0.9-3.9,1.4c-1.3-0.5-4.6-0.7-6.6,0c-1.4-1-3-1.6-3.9-1.4c-0.8,1.8-0.3,3.5-0.1,3.7
		c-1,1-2.5,2.1-2.1,4.6c0.6,3.6,3.2,5.6,7.3,6c-0.9,0.2-1,0.8-1.1,1.1c-2.7,1.1-3.5-0.7-3.9-1.2c-1.2-1.4-2.2-1-2.3-1
		c-0.1,0-0.1,0.1-0.1,0.2c0.1,0.3,0.7,0.6,0.7,0.6c0.9,0.6,1.2,1.8,1.4,2.1c1.2,2,4.1,1.2,4.1,1.2c0,0.2,0,1.7,0,2.8
		c-5.2-1.4-9-6.1-9-11.7C2.8,8.3,8.3,2.8,15,2.8S27.2,8.3,27.2,15C27.2,17,26.7,18.9,25.8,20.6 M19.2,26.4"/>
</g>
</svg>
