<?xml version="1.0" encoding="utf-8"?>
<!-- Generator: Adobe Illustrator 19.0.0, SVG Export Plug-In . SVG Version: 6.00 Build 0)  -->
<svg version="1.1" id="Layer_1" xmlns="http://www.w3.org/2000/svg" xmlns:xlink="http://www.w3.org/1999/xlink" x="0px" y="0px"
	 viewBox="0 0 30 30" style="enable-background:new 0 0 30 30;" xml:space="preserve">
<style type="text/css">
	.st0{fill:#9933FF;}
</style>
<g id="XMLID_143_">
	<g id="XMLID_88_">
		<path id="XMLID_96_" class="st0" d="M21.7,0H8.3C3.7,0,0,3.7,0,8.3v13.4C0,26.3,3.7,30,8.3,30h13.4c4.6,0,8.3-3.7,8.3-8.3V8.3
			C30,3.7,26.3,0,21.7,0L21.7,0z M27.3,21.7c0,3.1-2.5,5.6-5.6,5.6H8.3c-3.1,0-5.6-2.5-5.6-5.6V8.3c0-3.1,2.5-5.6,5.6-5.6h13.4
			c3.1,0,5.6,2.5,5.6,5.6V21.7z M27.3,21.7"/>
		<path id="XMLID_92_" class="st0" d="M15,7.3c-4.3,0-7.7,3.5-7.7,7.7c0,4.3,3.5,7.7,7.7,7.7c4.3,0,7.7-3.5,7.7-7.7
			C22.7,10.7,19.3,7.3,15,7.3L15,7.3z M15,20.1c-2.8,0-5.1-2.3-5.1-5.1c0-2.8,2.3-5.1,5.1-5.1s5.1,2.3,5.1,5.1
			C20.1,17.8,17.8,20.1,15,20.1L15,20.1z M15,20.1"/>
		<path id="XMLID_89_" class="st0" d="M23.1,5c-0.5,0-1,0.2-1.4,0.6c-0.4,0.4-0.6,0.9-0.6,1.4c0,0.5,0.2,1,0.6,1.4
			c0.4,0.4,0.9,0.6,1.4,0.6c0.5,0,1-0.2,1.4-0.6C24.8,8,25,7.5,25,7c0-0.5-0.2-1-0.6-1.4C24.1,5.2,23.6,5,23.1,5L23.1,5z M23.1,5"/>
	</g>
</g>
</svg>
