<?xml version="1.0" encoding="utf-8"?>
<!-- Generator: Adobe Illustrator 19.0.0, SVG Export Plug-In . SVG Version: 6.00 Build 0)  -->
<svg version="1.1" id="Layer_1" xmlns="http://www.w3.org/2000/svg" xmlns:xlink="http://www.w3.org/1999/xlink" x="0px" y="0px"
	 viewBox="0 0 30 30" style="enable-background:new 0 0 30 30;" xml:space="preserve">
<style type="text/css">
	.st0{fill:#D0D2D3;}
</style>
<g id="XMLID_23_">
	<g id="XMLID_108_">
		<g id="XMLID_109_">
			<path id="XMLID_117_" class="st0" d="M21.7,0H8.3C3.7,0,0,3.7,0,8.3v13.4C0,26.3,3.7,30,8.3,30h13.4c4.6,0,8.3-3.7,8.3-8.3V8.3
				C30,3.7,26.3,0,21.7,0L21.7,0z M27.3,21.7c0,3.1-2.5,5.6-5.6,5.6H8.3c-3.1,0-5.6-2.5-5.6-5.6V8.3c0-3.1,2.5-5.6,5.6-5.6h13.4
				c3.1,0,5.6,2.5,5.6,5.6V21.7z M27.3,21.7"/>
			<path id="XMLID_115_" class="st0" d="M15,20.1"/>
			<path id="XMLID_113_" class="st0" d="M23.1,5"/>
			<path id="XMLID_112_" class="st0" d="M11.1,22.2c0,0.3-0.2,0.5-0.5,0.5H8.3c-0.3,0-0.5-0.2-0.5-0.5v-9.3c0-0.3,0.2-0.5,0.5-0.5
				h2.2c0.3,0,0.5,0.2,0.5,0.5V22.2z"/>
			<path id="XMLID_111_" class="st0" d="M9.4,11.5c-1.2,0-2.1-0.9-2.1-2.1c0-1.2,0.9-2.1,2.1-2.1c1.2,0,2.1,0.9,2.1,2.1
				C11.5,10.5,10.6,11.5,9.4,11.5L9.4,11.5z"/>
			<path id="XMLID_110_" class="st0" d="M22.7,22.3c0,0.3-0.2,0.5-0.5,0.5h-2.4c-0.3,0-0.5-0.2-0.5-0.5v-4.4c0-0.7,0.2-2.9-1.7-2.9
				c-1.5,0-1.8,1.5-1.8,2.2v5c0,0.3-0.2,0.5-0.5,0.5H13c-0.3,0-0.5-0.2-0.5-0.5v-9.4c0-0.3,0.2-0.5,0.5-0.5h2.3
				c0.3,0,0.5,0.2,0.5,0.5v0.8c0.5-0.8,1.4-1.4,3.1-1.4c3.8,0,3.8,3.6,3.8,5.5V22.3z"/>
		</g>
	</g>
</g>
</svg>
