<?xml version="1.0" encoding="utf-8"?>
<!-- Generator: Adobe Illustrator 19.2.0, SVG Export Plug-In . SVG Version: 6.00 Build 0)  -->
<svg version="1.1" id="Capa_1" xmlns="http://www.w3.org/2000/svg" xmlns:xlink="http://www.w3.org/1999/xlink" x="0px" y="0px"
	 viewBox="0 0 30 30" style="enable-background:new 0 0 30 30;" xml:space="preserve">
<style type="text/css">
	.st0{fill:#6F5EE7;}
	.st1{fill:#330066;}
	.st2{fill:#38E090;}
	.st3{fill:#E6E7E8;}
</style>
<path class="st2" d="M30,7.6c-0.2-0.6-0.6-1.1-1.1-1.4l-7.4-4c-1-0.5-2.3-0.2-2.9,0.8L14,10.5l-2.2-3.3c-0.2-0.3-0.4-0.5-0.8-0.7
	L2.8,2.4C2.3,2.1,1.7,2,1.1,2.3C0.4,2.6,0,3.3,0,4v18c0,0.7,0.4,1.4,1,1.7L9.3,28c0.3,0.1,0.6,0.2,0.9,0.2c0.3,0,0.7-0.1,1-0.3
	c0.6-0.4,0.9-1,0.9-1.6v-6.1l7.5,3.7l7.6,3.9c0.3,0.1,0.6,0.2,0.9,0.2c0.3,0,0.7-0.1,1-0.3c0.6-0.3,0.9-1,0.9-1.6l0-16.8
	c0-0.2,0-0.4,0.1-0.7C30.1,8.3,30.1,7.9,30,7.6 M9.6,25.3l-7.1-3.6V5l7.1,3.6V25.3z M12.1,17.4v-5.2l4.7,7.5L12.1,17.4z M27.5,25.1
	l-5.6-2.9l5.6-9.1L27.5,25.1z M20.1,20.3l-4.7-7.5l5.1-8.2l6.9,3.7L20.1,20.3z"/>
</svg>
