<?xml version="1.0" encoding="utf-8"?>
<!-- Generator: Adobe Illustrator 19.2.0, SVG Export Plug-In . SVG Version: 6.00 Build 0)  -->
<svg version="1.1" id="Capa_1" xmlns="http://www.w3.org/2000/svg" xmlns:xlink="http://www.w3.org/1999/xlink" x="0px" y="0px"
	 viewBox="0 0 30 30" style="enable-background:new 0 0 30 30;" xml:space="preserve">
<style type="text/css">
	.st0{fill:#6F5EE7;}
	.st1{fill:#330066;}
	.st2{fill:#38E090;}
	.st3{fill:#E6E7E8;}
</style>
<path class="st0" d="M29.9,8c-0.2-0.6-0.6-1.1-1.1-1.4l-7.4-4c-1-0.5-2.3-0.2-2.9,0.8l-4.6,7.5l-2.2-3.3c-0.2-0.3-0.4-0.5-0.8-0.7
	L2.7,2.8C2.2,2.5,1.5,2.5,1,2.7C0.3,3-0.1,3.7-0.1,4.5v18c0,0.7,0.4,1.4,1,1.7l8.3,4.2c0.3,0.1,0.6,0.2,0.9,0.2c0.3,0,0.7-0.1,1-0.3
	c0.6-0.4,0.9-1,0.9-1.6v-6.1l7.5,3.7l7.6,3.9c0.3,0.1,0.6,0.2,0.9,0.2c0.3,0,0.7-0.1,1-0.3c0.6-0.3,0.9-1,0.9-1.6l0-16.8
	c0-0.2,0-0.4,0.1-0.7C30,8.7,30,8.4,29.9,8 M9.5,25.8l-7.1-3.6V5.4L9.5,9V25.8z M11.9,17.8v-5.2l4.7,7.5L11.9,17.8z M27.3,25.5
	l-5.6-2.9l5.6-9.1L27.3,25.5z M20,20.8l-4.7-7.5L20.4,5l6.9,3.7L20,20.8z"/>
</svg>
