<?xml version="1.0" encoding="utf-8"?>
<!-- Generator: Adobe Illustrator 19.2.0, SVG Export Plug-In . SVG Version: 6.00 Build 0)  -->
<svg version="1.1" id="Capa_1" xmlns="http://www.w3.org/2000/svg" xmlns:xlink="http://www.w3.org/1999/xlink" x="0px" y="0px"
	 viewBox="0 0 30 30" style="enable-background:new 0 0 30 30;" xml:space="preserve">
<style type="text/css">
	.st0{fill:#6F5EE7;}
	.st1{fill:#330066;}
	.st2{fill:#38E090;}
	.st3{fill:#E6E7E8;}
</style>
<path class="st3" d="M9.8,28.1c-1.9,0-3.5-0.2-5.1-0.8c-1.3-0.4-2.5-1-3.8-1.7c-0.2-0.1-0.4-0.3-0.6-0.5c-0.3-0.4-0.4-1-0.2-1.4
	C0.4,23.3,0.9,23,1.4,23c1.8,0.1,3.4-0.1,4.9-0.7c-1.5-0.8-2.6-2.1-3.3-3.9c-0.1-0.4-0.1-0.8,0.1-1.1c-1.3-1.3-2.1-3-2.2-5
	c0-0.5,0.2-0.9,0.6-1.2c0,0,0.1,0,0.1-0.1C0.8,9.1,0.8,7,1.8,4.6C2,4.2,2.4,4,2.8,3.9c0.4-0.1,0.9,0,1.2,0.3l1.4,1.4
	c2.3,2.3,5,3.6,8.2,4.1c0-3.2,2.5-6.1,5.7-6.7c2.3-0.4,4.4,0.2,6,1.7c0,0,0,0,0,0c0.4,0.2,2,0.3,3.4,0.3c0.4,0,0.9,0.2,1.2,0.7
	C30.1,6,30.1,6.6,29.8,7c-0.9,1.3-1.8,2.8-2.2,3.4c0,1.2-0.1,2.5-0.4,3.8c-1.1,4.8-3.6,8.5-7.5,11.1c-2.2,1.5-4.6,2.4-7.2,2.7
	C11.6,28.1,10.7,28.1,9.8,28.1 M6.2,25.1c1.8,0.4,3.7,0.5,6,0.3c2.2-0.2,4.2-1,6-2.2c3.3-2.3,5.4-5.4,6.4-9.5
	c0.3-1.2,0.3-2.4,0.4-3.6c0-0.3,0-0.5,1.3-2.5c-1.4-0.1-2.4-0.5-2.9-1c-1.1-1-2.3-1.3-3.8-1c-2,0.4-3.6,2.2-3.5,4.2c0,0.3,0,0.7,0,1
	v0.4c0,0.7-0.6,1.3-1.3,1.3c0,0-0.1,0-0.2,0c-4.3-0.3-7.9-2-10.9-4.8c-0.2,1.6,0.5,2.9,1.9,4.2c0.4,0.4,0.6,1,0.4,1.5
	c-0.2,0.5-0.8,0.9-1.3,0.8c-0.2,0-0.4,0-0.6-0.1c0.5,1.2,1.5,2,3.1,2.5C7.6,16.8,8,17.3,8,17.9c0,0.6-0.4,1.1-1,1.2
	c-0.2,0-0.3,0.1-0.4,0.1c0.8,0.8,1.8,1.3,3.2,1.4c0.5,0.1,1,0.4,1.1,1c0.1,0.5,0,1.1-0.5,1.4C9.1,23.9,7.7,24.6,6.2,25.1"/>
</svg>
