<?xml version="1.0" encoding="utf-8"?>
<!-- Generator: Adobe Illustrator 19.2.0, SVG Export Plug-In . SVG Version: 6.00 Build 0)  -->
<svg version="1.1" id="Capa_1" xmlns="http://www.w3.org/2000/svg" xmlns:xlink="http://www.w3.org/1999/xlink" x="0px" y="0px"
	 viewBox="0 0 30 21.5" style="enable-background:new 0 0 30 21.5;" xml:space="preserve">
<style type="text/css">
	.st0{fill:#330066;}
</style>
<path class="st0" d="M29.8,5.7c-0.2-3.1-2.8-5.6-5.9-5.6L19.7,0c-2.6,0-6.9,0-9.5,0L6,0.1c-3.1,0-5.7,2.6-5.9,5.7l0,0.2
	C0,8.6,0,12.9,0.1,15.5l0,0.3c0.2,3.1,2.8,5.6,5.9,5.7l4.3,0.1c1.3,0,3,0,4.7,0c1.7,0,3.5,0,4.8,0l4.2-0.1c3.1-0.1,5.7-2.6,5.9-5.7
	l0-0.3c0.2-2.6,0.2-6.9,0-9.5L29.8,5.7z M27.9,15.4l0,0.3c-0.1,2.1-2,3.9-4.1,3.9l-4.2,0.1c-2.6,0.1-6.8,0.1-9.4,0L6,19.5
	c-2.1,0-3.9-1.8-4-3.9l0-0.3c-0.1-2.6-0.1-6.7,0-9.3l0-0.2C2.1,3.7,3.9,2,6,2l4.2-0.1c1.3,0,3,0,4.6,0c1.7,0,3.5,0,4.8,0L23.8,2
	c2.1,0,3.9,1.8,4.1,3.9l0,0.3C28.1,8.7,28.1,12.8,27.9,15.4L27.9,15.4z M27.9,15.4"/>
<path class="st0" d="M20,9.6l-7.5-3.9c-0.3-0.2-0.6-0.1-0.9,0c-0.3,0.2-0.5,0.5-0.5,0.8v7.8c0,0.3,0.2,0.6,0.5,0.8
	c0.2,0.1,0.3,0.1,0.5,0.1c0.2,0,0.3,0,0.4-0.1l7.5-3.9c0.3-0.2,0.5-0.5,0.5-0.8C20.5,10.1,20.3,9.8,20,9.6L20,9.6z"/>
<path class="st0" d="M13,12.8"/>
</svg>
