<svg xmlns="http://www.w3.org/2000/svg" viewBox="0 0 100 100"><style type="text/css">  
	.st0{fill:#D0D2D3;}
	.st1{fill:#9933FF;}
	.st2{fill:#7B2EC7;}
	.st3{fill:#38E090;}
</style><path class="st0" d="M50 3c3.9 0 7 3.1 7 7s-3.1 7-7 7 -7-3.1-7-7S46.1 3 50 3M50 0c-5.5 0-10 4.5-10 10s4.5 10 10 10 10-4.5 10-10S55.5 0 50 0L50 0z"/><path class="st0" d="M30 3c1.9 0 3.6 0.7 4.9 2.1 2.7 2.7 2.7 7.2 0 9.9L34.9 15l-0.1 0.1L30 20.5l-4.8-5.4L25.1 15l-0.1-0.1c-2.7-2.7-2.7-7.2 0-9.9C26.4 3.7 28.1 3 30 3M30 0c-2.6 0-5.1 1-7.1 2.9 -3.9 3.9-3.9 10.2 0 14.1L30 25l7.1-7.9c3.9-3.9 3.9-10.2 0-14.1C35.1 1 32.6 0 30 0L30 0z"/><path class="st0" d="M10 4.2l5.8 5.8L10 15.8 4.2 10 10 4.2M10 0L0 10l10 10 10-10L10 0 10 0z"/><path class="st1" d="M50 28c3.9 0 7 3.1 7 7s-3.1 7-7 7 -7-3.1-7-7S46.1 28 50 28M50 25c-5.5 0-10 4.5-10 10s4.5 10 10 10 10-4.5 10-10S55.5 25 50 25L50 25z"/><path class="st1" d="M30 28c1.9 0 3.6 0.7 4.9 2.1 2.7 2.7 2.7 7.2 0 9.9L34.9 40l-0.1 0.1L30 45.5l-4.8-5.4L25.1 40l-0.1-0.1c-2.7-2.7-2.7-7.2 0-9.9C26.4 28.7 28.1 28 30 28M30 25c-2.6 0-5.1 1-7.1 2.9 -3.9 3.9-3.9 10.2 0 14.1L30 50l7.1-7.9c3.9-3.9 3.9-10.2 0-14.1C35.1 26 32.6 25 30 25L30 25z"/><path class="st1" d="M10 29.2l5.8 5.8L10 40.8 4.2 35 10 29.2M10 25L0 35l10 10 10-10L10 25 10 25z"/><path class="st2" d="M50 53c3.9 0 7 3.1 7 7s-3.1 7-7 7 -7-3.1-7-7S46.1 53 50 53M50 50c-5.5 0-10 4.5-10 10s4.5 10 10 10 10-4.5 10-10S55.5 50 50 50L50 50z"/><path class="st2" d="M30 53c1.9 0 3.6 0.7 4.9 2.1 2.7 2.7 2.7 7.2 0 9.9L34.9 65l-0.1 0.1L30 70.5l-4.8-5.4L25.1 65l-0.1-0.1c-2.7-2.7-2.7-7.2 0-9.9C26.4 53.7 28.1 53 30 53M30 50c-2.6 0-5.1 1-7.1 2.9 -3.9 3.9-3.9 10.2 0 14.1L30 75l7.1-7.9c3.9-3.9 3.9-10.2 0-14.1C35.1 51 32.6 50 30 50L30 50z"/><path class="st2" d="M10 54.2l5.8 5.8L10 65.8 4.2 60 10 54.2M10 50L0 60l10 10 10-10L10 50 10 50z"/><path class="st3" d="M50 78c3.9 0 7 3.1 7 7s-3.1 7-7 7 -7-3.1-7-7S46.1 78 50 78M50 75c-5.5 0-10 4.5-10 10s4.5 10 10 10 10-4.5 10-10S55.5 75 50 75L50 75z"/><path class="st3" d="M30 78c1.9 0 3.6 0.7 4.9 2.1 2.7 2.7 2.7 7.2 0 9.9L34.9 90l-0.1 0.1L30 95.5l-4.8-5.4L25.1 90l-0.1-0.1c-2.7-2.7-2.7-7.2 0-9.9C26.4 78.7 28.1 78 30 78M30 75c-2.6 0-5.1 1-7.1 2.9 -3.9 3.9-3.9 10.2 0 14.1L30 100l7.1-7.9c3.9-3.9 3.9-10.2 0-14.1C35.1 76 32.6 75 30 75L30 75z"/><path class="st3" d="M10 79.2l5.8 5.8L10 90.8 4.2 85 10 79.2M10 75L0 85l10 10 10-10L10 75 10 75z"/><path class="st0" d="M69.8 9.1h-1.9c0-0.6-0.5-1.1-1.1-1.1 -0.6 0-1.1 0.5-1.1 1.1h-1.9c0-1.6 1.3-3 3-3S69.8 7.5 69.8 9.1z"/><path class="st0" d="M76.2 9.1h-1.9c0-0.6-0.5-1.1-1.1-1.1 -0.6 0-1.1 0.5-1.1 1.1h-1.9c0-1.6 1.3-3 3-3S76.2 7.5 76.2 9.1z"/><path class="st0" d="M70 20c-5.5 0-10-4.5-10-10 0-5.5 4.5-10 10-10s10 4.5 10 10C80 15.5 75.5 20 70 20zM70 2.9c-3.9 0-7.1 3.2-7.1 7.1s3.2 7.1 7.1 7.1 7.1-3.2 7.1-7.1S73.9 2.9 70 2.9z"/><path class="st0" d="M70 15.4c-2.5 0-4.6-2-4.6-4.6h1.9c0 1.5 1.2 2.6 2.6 2.6 1.5 0 2.6-1.2 2.6-2.6h1.9C74.6 13.4 72.5 15.4 70 15.4z"/><path class="st0" d="M89.8 9.1h-1.9c0-0.6-0.5-1.1-1.1-1.1 -0.6 0-1.1 0.5-1.1 1.1h-1.9c0-1.6 1.3-3 3-3S89.8 7.5 89.8 9.1z"/><path class="st0" d="M96.2 9.1h-1.9c0-0.6-0.5-1.1-1.1-1.1 -0.6 0-1.1 0.5-1.1 1.1h-1.9c0-1.6 1.3-3 3-3S96.2 7.5 96.2 9.1z"/><path class="st0" d="M90 15.4c-2.5 0-4.6-2-4.6-4.6h1.9c0 1.5 1.2 2.6 2.6 2.6 1.5 0 2.6-1.2 2.6-2.6h1.9C94.6 13.4 92.5 15.4 90 15.4z"/><path class="st1" d="M69.8 34.1h-1.9c0-0.6-0.5-1.1-1.1-1.1 -0.6 0-1.1 0.5-1.1 1.1h-1.9c0-1.6 1.3-3 3-3S69.8 32.5 69.8 34.1z"/><path class="st1" d="M76.2 34.1h-1.9c0-0.6-0.5-1.1-1.1-1.1 -0.6 0-1.1 0.5-1.1 1.1h-1.9c0-1.6 1.3-3 3-3S76.2 32.5 76.2 34.1z"/><path class="st1" d="M70 45c-5.5 0-10-4.5-10-10 0-5.5 4.5-10 10-10s10 4.5 10 10C80 40.5 75.5 45 70 45zM70 27.9c-3.9 0-7.1 3.2-7.1 7.1s3.2 7.1 7.1 7.1 7.1-3.2 7.1-7.1S73.9 27.9 70 27.9z"/><path class="st1" d="M70 40.4c-2.5 0-4.6-2-4.6-4.6h1.9c0 1.5 1.2 2.6 2.6 2.6 1.5 0 2.6-1.2 2.6-2.6h1.9C74.6 38.4 72.5 40.4 70 40.4z"/><path class="st1" d="M89.8 34.1h-1.9c0-0.6-0.5-1.1-1.1-1.1 -0.6 0-1.1 0.5-1.1 1.1h-1.9c0-1.6 1.3-3 3-3S89.8 32.5 89.8 34.1z"/><path class="st1" d="M96.2 34.1h-1.9c0-0.6-0.5-1.1-1.1-1.1 -0.6 0-1.1 0.5-1.1 1.1h-1.9c0-1.6 1.3-3 3-3S96.2 32.5 96.2 34.1z"/><path class="st1" d="M90 40.4c-2.5 0-4.6-2-4.6-4.6h1.9c0 1.5 1.2 2.6 2.6 2.6 1.5 0 2.6-1.2 2.6-2.6h1.9C94.6 38.4 92.5 40.4 90 40.4z"/><path class="st2" d="M69.8 59.1h-1.9c0-0.6-0.5-1.1-1.1-1.1 -0.6 0-1.1 0.5-1.1 1.1h-1.9c0-1.6 1.3-3 3-3S69.8 57.5 69.8 59.1z"/><path class="st2" d="M76.2 59.1h-1.9c0-0.6-0.5-1.1-1.1-1.1 -0.6 0-1.1 0.5-1.1 1.1h-1.9c0-1.6 1.3-3 3-3S76.2 57.5 76.2 59.1z"/><path class="st2" d="M70 70c-5.5 0-10-4.5-10-10 0-5.5 4.5-10 10-10s10 4.5 10 10C80 65.5 75.5 70 70 70zM70 52.9c-3.9 0-7.1 3.2-7.1 7.1s3.2 7.1 7.1 7.1 7.1-3.2 7.1-7.1S73.9 52.9 70 52.9z"/><path class="st2" d="M70 65.4c-2.5 0-4.6-2-4.6-4.6h1.9c0 1.5 1.2 2.6 2.6 2.6 1.5 0 2.6-1.2 2.6-2.6h1.9C74.6 63.4 72.5 65.4 70 65.4z"/><path class="st2" d="M89.8 59.1h-1.9c0-0.6-0.5-1.1-1.1-1.1 -0.6 0-1.1 0.5-1.1 1.1h-1.9c0-1.6 1.3-3 3-3S89.8 57.5 89.8 59.1z"/><path class="st2" d="M96.2 59.1h-1.9c0-0.6-0.5-1.1-1.1-1.1 -0.6 0-1.1 0.5-1.1 1.1h-1.9c0-1.6 1.3-3 3-3S96.2 57.5 96.2 59.1z"/><path class="st2" d="M90 65.4c-2.5 0-4.6-2-4.6-4.6h1.9c0 1.5 1.2 2.6 2.6 2.6 1.5 0 2.6-1.2 2.6-2.6h1.9C94.6 63.4 92.5 65.4 90 65.4z"/><path class="st3" d="M69.8 84.1h-1.9c0-0.6-0.5-1.1-1.1-1.1 -0.6 0-1.1 0.5-1.1 1.1h-1.9c0-1.6 1.3-3 3-3S69.8 82.5 69.8 84.1z"/><path class="st3" d="M76.2 84.1h-1.9c0-0.6-0.5-1.1-1.1-1.1 -0.6 0-1.1 0.5-1.1 1.1h-1.9c0-1.6 1.3-3 3-3S76.2 82.5 76.2 84.1z"/><path class="st3" d="M70 95c-5.5 0-10-4.5-10-10 0-5.5 4.5-10 10-10s10 4.5 10 10C80 90.5 75.5 95 70 95zM70 77.9c-3.9 0-7.1 3.2-7.1 7.1s3.2 7.1 7.1 7.1 7.1-3.2 7.1-7.1S73.9 77.9 70 77.9z"/><path class="st3" d="M70 90.4c-2.5 0-4.6-2-4.6-4.6h1.9c0 1.5 1.2 2.6 2.6 2.6 1.5 0 2.6-1.2 2.6-2.6h1.9C74.6 88.4 72.5 90.4 70 90.4z"/><path class="st3" d="M89.8 84.1h-1.9c0-0.6-0.5-1.1-1.1-1.1 -0.6 0-1.1 0.5-1.1 1.1h-1.9c0-1.6 1.3-3 3-3S89.8 82.5 89.8 84.1z"/><path class="st3" d="M96.2 84.1h-1.9c0-0.6-0.5-1.1-1.1-1.1 -0.6 0-1.1 0.5-1.1 1.1h-1.9c0-1.6 1.3-3 3-3S96.2 82.5 96.2 84.1z"/><path class="st3" d="M90 90.4c-2.5 0-4.6-2-4.6-4.6h1.9c0 1.5 1.2 2.6 2.6 2.6 1.5 0 2.6-1.2 2.6-2.6h1.9C94.6 88.4 92.5 90.4 90 90.4z"/></svg>