<?xml version="1.0" encoding="utf-8"?>
<!-- Generator: Adobe Illustrator 21.1.0, SVG Export Plug-In . SVG Version: 6.00 Build 0)  -->
<svg version="1.1" id="Capa_1" xmlns="http://www.w3.org/2000/svg" xmlns:xlink="http://www.w3.org/1999/xlink" x="0px" y="0px"
	 viewBox="0 0 300 300" style="enable-background:new 0 0 300 300;" xml:space="preserve">
<style type="text/css">
	.st0{fill:#330066;}
	.st1{fill:#FFFFFF;}
	.st2{fill:none;stroke:#34DE8E;stroke-width:9;stroke-miterlimit:10;}
	.st3{fill:none;stroke:#34DE8E;stroke-width:10;stroke-linecap:round;stroke-linejoin:round;stroke-miterlimit:10;}
	.st4{fill:none;stroke:#34DE8E;stroke-width:10;stroke-miterlimit:10;}
	.st5{fill:none;stroke:#34DE8E;stroke-width:10;stroke-linejoin:round;stroke-miterlimit:10;}
	.st6{fill:none;stroke:#34DE8E;stroke-width:10;stroke-linecap:round;stroke-miterlimit:10;}
</style>
<path class="st0" d="M159.2,184.1c-6.8,0-20.4-0.1-29.7-0.1c-50.8,0-53.4,1.9-68.1-1c-13.3-2.6-23.2-4.5-33.7-12.3
	c-3.3-2.5-26.2-20-24-45.8c1.5-17.8,14.2-29.4,16.5-31.5c11.8-10.4,18.4-5.3,28.9-16c10.5-10.8,7.6-19.9,19.2-26.6
	c2.3-1.4,9.3-5.4,17.6-4.3c6.6,0.9,8.6,4.3,12.8,3.7c7-1,9.3-11.9,13.4-19.2C126.5,5.1,173,5.6,175.7,5.6c6.7,0.1,30.4,0.7,49.7,17
	c2.7,2.3,23.8,20.2,28.3,46.9c1.3,7.8,1.2,16.4,8,22.9c5.8,5.6,10.8,3.9,17.3,7.7c13.1,7.6,18.7,29.2,14.8,45.8
	c-6.2,26.2-35.6,36.2-39.5,37.6c-7,2.4-7.7,1.3-68,0.8C182.1,184.3,171.9,184.2,159.2,184.1z"/>
<path class="st1" d="M129.1,259v-76.6c0-2.6-2.1-4.8-4.8-4.8H92.4c-2.6,0-4.8,2.1-4.8,4.8c0,2.6,2.1,4.8,4.8,4.8h27.2V259
	c-9.1,2.2-16,10.4-16,20.1c0,11.4,9.3,20.7,20.8,20.7s20.8-9.3,20.8-20.7C145.1,269.3,138.2,261.1,129.1,259z M124.3,290.3
	c-6.2,0-11.2-5-11.2-11.1s5-11.1,11.2-11.1s11.2,5,11.2,11.1S130.5,290.3,124.3,290.3z"/>
<path class="st1" d="M180.2,259v-76.6c0-2.6-2.1-4.8-4.8-4.8h-31.9c-2.6,0-4.8,2.1-4.8,4.8c0,2.6,2.1,4.8,4.8,4.8h27.2V259
	c-9.1,2.2-16,10.4-16,20.1c0,11.4,9.3,20.7,20.8,20.7s20.8-9.3,20.8-20.7C196.2,269.3,189.4,261.1,180.2,259z M175.4,290.3
	c-6.2,0-11.2-5-11.2-11.1s5-11.1,11.2-11.1c6.2,0,11.2,5,11.2,11.1S181.6,290.3,175.4,290.3z"/>
<path class="st1" d="M261.7,226.5c-9.8,0-18,6.8-20.2,15.9h-10.1v-60.1c0-2.6-2.1-4.8-4.8-4.8h-31.9c-2.6,0-4.8,2.1-4.8,4.8
	c0,2.6,2.1,4.8,4.8,4.8h27.2v60.1c0,2.6,2.1,4.8,4.8,4.8h14.9c2.2,9.1,10.4,15.9,20.2,15.9c11.4,0,20.8-9.3,20.8-20.7
	S273.1,226.5,261.7,226.5z M261.7,258.4c-6.2,0-11.2-5-11.2-11.1c0-6.1,5-11.1,11.2-11.1c6.2,0,11.2,5,11.2,11.1
	C272.8,253.4,267.8,258.4,261.7,258.4z"/>
<path class="st1" d="M288.4,103.3c-6.5-8-15.2-13.9-25-16.9c-1.1-22.6-10.5-43.7-26.7-59.8C219.6,9.7,196.9,0.4,172.8,0.4
	c-31.6,0-60.9,16.4-77.3,43.2c-4-1.3-8.2-1.9-12.4-1.9c-19.6,0-36.4,13.8-40.5,32.6c-25.1,6.5-43.1,29.3-43.1,55.5
	c0,31.6,25.8,57.4,57.5,57.4h11.1v55.3H58.1c-2.2-9.1-10.4-15.9-20.2-15.9c-11.4,0-20.8,9.3-20.8,20.7S26.4,268,37.9,268
	c9.8,0,18-6.8,20.2-15.9H73c2.6,0,4.8-2.1,4.8-4.8v-64.9c0-2.6-2.1-4.8-4.8-4.8H57.1c-26.4,0-48-21.5-48-47.8
	c0-22.8,16.2-42.5,38.6-46.9c2-0.4,3.6-2,3.8-4.1c2.1-15.7,15.6-27.6,31.5-27.6c4.4,0,8.6,0.9,12.6,2.6c2.3,1,4.9,0.1,6.1-2.1
	c14.3-25.8,41.5-41.8,71-41.8c44.3,0,80.7,36,81.1,80.2c0,2.2,1.6,4.1,3.7,4.6c19.2,4.4,32.6,21.2,32.6,40.9c0,23.2-18.9,42-42.1,42
	h-2.6c-2.6,0-4.8,2.1-4.8,4.8c0,2.6,2.1,4.8,4.8,4.8h2.6c28.5,0,51.7-23.1,51.7-51.6C299.8,123.9,295.8,112.4,288.4,103.3z
	 M37.9,258.4c-6.2,0-11.2-5-11.2-11.1c0-6.1,5-11.1,11.2-11.1s11.2,5,11.2,11.1C49.1,253.4,44,258.4,37.9,258.4z"/>
<path class="st1" d="M233.4,95.1L233.4,95.1c2.7,0,4.8-2.2,4.8-4.8c-0.1-7.9-1.6-15.6-4.4-22.9c-1-2.5-3.7-3.7-6.2-2.7
	c-2.5,1-3.7,3.7-2.7,6.2c2.4,6.2,3.7,12.8,3.8,19.5C228.6,92.9,230.7,95.1,233.4,95.1L233.4,95.1z"/>
<path class="st1" d="M215.8,55.7c0.9,1.1,2.3,1.7,3.7,1.7c1.1,0,2.2-0.4,3-1.1c2-1.7,2.3-4.7,0.6-6.7
	c-12.5-15.1-30.8-23.7-50.2-23.7c-2.6,0-4.8,2.1-4.8,4.8s2.1,4.8,4.8,4.8C189.6,35.4,205.2,42.8,215.8,55.7L215.8,55.7z"/>
<ellipse class="st2" cx="124.1" cy="279.3" rx="16.1" ry="16"/>
<ellipse class="st2" cx="175.5" cy="279.3" rx="16.1" ry="16"/>
<polyline class="st3" points="92.6,182.5 124.2,182.5 124.2,259 "/>
<polyline class="st3" points="143.5,182.5 175.4,182.5 175.4,259 "/>
<line class="st3" x1="228" y1="247.6" x2="243.4" y2="247.6"/>
<path class="st0" d="M53.6,182.7c0.1,2.1,1.6,3.9,3.7,4.5c-0.5,0.4-3.9,3.5-9,2.8c-4.9-0.7-7.4-4.5-7.7-5c2.5,0.5,5-0.8,5.8-3
	c1-2.5-0.4-5.5-3.1-6.5c1.2-0.5,4.7-1.7,8.8-0.6c2.7,0.7,4.6,2,5.6,2.9C55.2,178.1,53.5,180.3,53.6,182.7z"/>
<g>
	<polyline class="st3" points="194.9,182.5 226.4,182.5 226.4,247.6 	"/>
	<ellipse class="st4" cx="261.6" cy="247.6" rx="15.8" ry="16"/>
</g>
<g>
	<ellipse class="st4" cx="37.9" cy="247.3" rx="16.1" ry="16"/>
	<polyline class="st5" points="54,247.6 73,247.6 72.8,187.2 	"/>
</g>
<line class="st6" x1="72.8" y1="182.5" x2="56" y2="182.5"/>
<line class="st6" x1="72.9" y1="200" x2="72.9" y2="183.2"/>
</svg>
