<?xml version="1.0" encoding="utf-8"?>
<!-- Generator: Adobe Illustrator 21.1.0, SVG Export Plug-In . SVG Version: 6.00 Build 0)  -->
<svg version="1.1" id="Capa_1" xmlns="http://www.w3.org/2000/svg" xmlns:xlink="http://www.w3.org/1999/xlink" x="0px" y="0px"
	 viewBox="0 0 300 300" style="enable-background:new 0 0 300 300;" xml:space="preserve">
<style type="text/css">
	.st0{fill:#38E090;}
</style>
<g>
	<path class="st0" d="M294.8,226.9c0.1,0,0.2-0.1,0.3-0.1c0.1,0,0.2,0,0.3-0.1c0.1,0,0.2-0.1,0.3-0.1c0.1,0,0.2-0.1,0.3-0.1
		c0.1,0,0.2-0.1,0.3-0.1c0.1,0,0.2-0.1,0.3-0.1c0.1,0,0.2-0.1,0.3-0.2c0.1-0.1,0.2-0.1,0.3-0.2c0.1-0.1,0.2-0.1,0.3-0.2
		c0.1-0.1,0.2-0.1,0.2-0.2c0.1-0.1,0.3-0.2,0.4-0.4c0,0,0,0,0.1-0.1c0,0,0-0.1,0.1-0.1c0.1-0.1,0.2-0.3,0.4-0.4
		c0.1-0.1,0.1-0.2,0.2-0.3c0.1-0.1,0.1-0.2,0.2-0.3c0.1-0.1,0.1-0.2,0.2-0.3c0-0.1,0.1-0.2,0.1-0.3c0.1-0.1,0.1-0.2,0.1-0.3
		c0-0.1,0.1-0.2,0.1-0.3c0-0.1,0.1-0.2,0.1-0.3c0-0.1,0.1-0.2,0.1-0.3c0-0.1,0.1-0.2,0.1-0.3c0-0.1,0.1-0.2,0.1-0.3
		c0-0.1,0-0.2,0.1-0.4c0-0.1,0-0.2,0-0.3c0-0.2,0-0.4,0-0.6V81.4c0-3.6-2.9-6.5-6.5-6.5H88.6c-0.1,0-0.1,0-0.2,0c-0.1,0-0.2,0-0.4,0
		c-0.1,0-0.2,0-0.3,0c-0.1,0-0.2,0-0.3,0.1c-0.1,0-0.2,0-0.3,0.1c-0.1,0-0.2,0.1-0.3,0.1c-0.1,0-0.2,0.1-0.3,0.1
		c-0.1,0-0.2,0.1-0.3,0.1c-0.1,0-0.2,0.1-0.3,0.1c-0.1,0-0.2,0.1-0.3,0.1c-0.1,0-0.2,0.1-0.3,0.1c-0.1,0.1-0.2,0.1-0.3,0.2
		c-0.1,0.1-0.2,0.1-0.2,0.2c-0.1,0.1-0.2,0.1-0.3,0.2c-0.1,0.1-0.2,0.1-0.2,0.2c-0.1,0.1-0.2,0.1-0.2,0.2c-0.1,0.1-0.2,0.2-0.2,0.3
		c0,0-0.1,0.1-0.1,0.1c0,0,0,0.1-0.1,0.1c-0.1,0.1-0.2,0.2-0.2,0.3c-0.1,0.1-0.1,0.1-0.2,0.2c-0.1,0.1-0.1,0.2-0.2,0.3
		c-0.1,0.1-0.1,0.2-0.2,0.2c-0.1,0.1-0.1,0.2-0.2,0.3c0,0.1-0.1,0.2-0.1,0.3c0,0.1-0.1,0.2-0.1,0.3c0,0.1-0.1,0.2-0.1,0.3
		c0,0.1-0.1,0.2-0.1,0.3c0,0.1-0.1,0.2-0.1,0.3c0,0.1,0,0.2-0.1,0.3c0,0.1,0,0.2-0.1,0.3c0,0.1,0,0.2,0,0.3c0,0.1,0,0.2,0,0.4
		c0,0,0,0.1,0,0.1v40.1c0,3.6,2.9,6.5,6.5,6.5s6.5-2.9,6.5-6.5V95.9l57.8,51.2c-0.3,0.2-0.6,0.4-0.9,0.7l-57,57V162
		c0-3.6-2.9-6.5-6.5-6.5c-3.6,0-6.5,2.9-6.5,6.5v7.9H48.4c-3.6,0-6.5,2.9-6.5,6.5c0,3.6,2.9,6.5,6.5,6.5H82v37.5
		c0,3.6,2.9,6.5,6.5,6.5h204.9c0.2,0,0.4,0,0.6,0c0.1,0,0.2,0,0.3,0C294.5,226.9,294.7,226.9,294.8,226.9z M287,204.8l-57-57
		c0,0-0.1-0.1-0.1-0.1l42.8-36.3c2.7-2.3,3.1-6.4,0.8-9.2c-2.3-2.7-6.4-3.1-9.2-0.8l-73.2,62.1l-85.4-75.6H287L287,204.8L287,204.8z
		 M161.2,157c0.5-0.5,0.8-1,1.1-1.5l24.3,21.5c1.2,1.1,2.8,1.6,4.3,1.6c1.5,0,3-0.5,4.2-1.5l24.8-21c0.2,0.3,0.5,0.6,0.8,0.9l57,57
		H104.3L161.2,157z"/>
	<path class="st0" d="M6.5,149h109.9c3.6,0,6.5-2.9,6.5-6.5c0-3.6-2.9-6.5-6.5-6.5H6.5c-3.6,0-6.5,2.9-6.5,6.5
		C0,146.1,2.9,149,6.5,149z"/>
	<path class="st0" d="M17.9,113.2h49.3c3.6,0,6.5-2.9,6.5-6.5s-2.9-6.5-6.5-6.5H17.9c-3.6,0-6.5,2.9-6.5,6.5S14.3,113.2,17.9,113.2z
		"/>
	<path class="st0" d="M54.2,197.5H6.5c-3.6,0-6.5,2.9-6.5,6.5c0,3.6,2.9,6.5,6.5,6.5h47.7c3.6,0,6.5-2.9,6.5-6.5
		C60.7,200.4,57.8,197.5,54.2,197.5z"/>
</g>
</svg>
