<?xml version="1.0" encoding="utf-8"?>
<!-- Generator: Adobe Illustrator 21.1.0, SVG Export Plug-In . SVG Version: 6.00 Build 0)  -->
<svg version="1.1" id="Capa_1" xmlns="http://www.w3.org/2000/svg" xmlns:xlink="http://www.w3.org/1999/xlink" x="0px" y="0px"
	 viewBox="0 0 300 300" style="enable-background:new 0 0 300 300;" xml:space="preserve">
<style type="text/css">
	.st0{fill:#9933FF;}
	.st1{fill:#38E090;}
</style>
<g>
	<path class="st0" d="M249.6,150.4c0,2.8,2.2,5,5,5h20c2.8,0,5-2.2,5-5c0-2.8-2.2-5-5-5h-20C251.9,145.4,249.6,147.7,249.6,150.4z"
		/>
	<path class="st1" d="M149.7,0.6C67.1,0.6-0.2,67.8-0.2,150.4c0,23.8,5.4,46.5,16.1,67.6c1.2,2.5,4.2,3.5,6.7,2.2
		c2.5-1.2,3.4-4.3,2.2-6.7c-9.9-19.7-15-40.9-15-63.1c0-77.1,62.8-139.9,139.9-139.9s139.9,62.8,139.9,139.9
		s-62.8,139.9-139.9,139.9c-41,0-80.4-18.5-107.1-50h197.1c2.8,0,5-2.2,5-5s-2.2-5-5-5H32.2c-2,0-3.8,1.3-4.6,3.1
		c-0.7,1.7-0.4,3.6,0.7,5c28.5,38.7,73.9,61.9,121.4,61.9c82.6,0,149.9-67.2,149.9-149.9S232.4,0.6,149.7,0.6z"/>
	<path class="st0" d="M269.1,113.3l-19.3,5.2c-2.7,0.7-4.2,3.5-3.5,6.1c0.6,2.2,2.6,3.7,4.8,3.7c0.4,0,0.9-0.1,1.3-0.2l19.3-5.2
		c2.7-0.7,4.2-3.5,3.5-6.1C274.5,114.2,271.7,112.6,269.1,113.3z"/>
	<path class="st1" d="M210.3,47C192,36.2,171,30.5,149.7,30.5c-66.1,0-119.9,53.8-119.9,119.9c0,26.7,7.3,50.2,21,68
		c1,1.3,2.5,1.9,4,1.9c1.1,0,2.1-0.3,3.1-1c2.2-1.7,2.6-4.8,0.9-7c-12.6-16.3-18.9-37.1-18.9-61.9c0-60.6,49.3-109.9,109.9-109.9
		c19.5,0,38.8,5.2,55.6,15.1c2.4,1.4,5.4,0.6,6.8-1.8C213.5,51.5,212.7,48.4,210.3,47z"/>
	<path class="st0" d="M255.4,83.7l-17.3,10c-2.4,1.4-3.2,4.4-1.8,6.8c0.9,1.6,2.6,2.5,4.3,2.5c0.8,0,1.7-0.2,2.5-0.7l17.3-10
		c2.4-1.4,3.2-4.4,1.8-6.8C260.8,83.1,257.8,82.3,255.4,83.7z"/>
	<path class="st0" d="M231.1,62l-71.3,71.3c-3-1.8-6.4-2.8-10.1-2.8c-11,0-20,9-20,20c0,3.7,1.1,7.1,2.8,10.1l-16.4,16.4
		c-2,2-2,5.1,0,7.1c1,1,2.3,1.5,3.5,1.5c1.3,0,2.6-0.5,3.5-1.5l16.4-16.4c3,1.8,6.4,2.8,10.1,2.8c11,0,20-9,20-20
		c0-3.7-1.1-7.1-2.8-10.1L238.2,69c2-2,2-5.1,0-7.1C236.2,60,233.1,60,231.1,62z M149.7,160.4c-5.5,0-10-4.5-10-10
		c0-5.5,4.5-10,10-10c5.5,0,10,4.5,10,10C159.7,156,155.2,160.4,149.7,160.4z"/>
</g>
</svg>
