<?xml version="1.0" encoding="utf-8"?>
<!-- Generator: Adobe Illustrator 21.1.0, SVG Export Plug-In . SVG Version: 6.00 Build 0)  -->
<svg version="1.1" id="Capa_1" xmlns="http://www.w3.org/2000/svg" xmlns:xlink="http://www.w3.org/1999/xlink" x="0px" y="0px"
	 viewBox="0 0 300 300" style="enable-background:new 0 0 300 300;" xml:space="preserve">
<style type="text/css">
	.st0{fill:#34DE8E;}
	.st1{fill:#FFFFFF;}
</style>
<path class="st0" d="M71.7,135.7H37.9c-6.1,0-11-5-11-11v-18.2c8.5-2.5,14.8-10.2,14.8-19.6c0-11.2-9.1-20.4-20.4-20.4
	S0.9,75.7,0.9,87c0,9.3,6.3,17.1,14.8,19.6v18.2c0,12.2,9.9,22.2,22.2,22.2h33.9c3.1,0,5.6-2.5,5.6-5.6
	C77.3,138.2,74.8,135.7,71.7,135.7z M12,87c0-5.1,4.1-9.2,9.2-9.2s9.2,4.1,9.2,9.2c0,5.1-4.1,9.2-9.2,9.2S12,92,12,87z"/>
<path class="st0" d="M71.2,156.3H37.3c-12.2,0-22.2,9.9-22.2,22.2v18.2c-8.5,2.5-14.8,10.2-14.8,19.6c0,11.2,9.1,20.4,20.4,20.4
	s20.4-9.1,20.4-20.4c0-9.3-6.3-17.1-14.8-19.6v-18.2c0-6.1,5-11,11-11h33.9c3.1,0,5.6-2.5,5.6-5.6C76.7,158.9,74.2,156.3,71.2,156.3
	z M29.9,216.2c0,5.1-4.1,9.2-9.2,9.2s-9.2-4.1-9.2-9.2c0-5.1,4.1-9.2,9.2-9.2S29.9,211.1,29.9,216.2z"/>
<path class="st0" d="M173.4,278.6c0-9.3-6.3-17.1-14.8-19.6v-30.9c0-3.1-2.5-5.6-5.6-5.6s-5.6,2.5-5.6,5.6V259
	c-8.5,2.5-14.8,10.2-14.8,19.6c0,11.2,9.1,20.4,20.4,20.4S173.4,289.9,173.4,278.6z M143.8,278.6c0-5.1,4.1-9.2,9.2-9.2
	s9.2,4.1,9.2,9.2s-4.1,9.2-9.2,9.2C147.9,287.9,143.8,283.7,143.8,278.6z"/>
<path class="st0" d="M285.9,196.7v-18.2c0-12.2-9.9-22.2-22.2-22.2h-33.9c-3.1,0-5.6,2.5-5.6,5.6c0,3.1,2.5,5.6,5.6,5.6h33.9
	c6.1,0,11,5,11,11v18.2c-8.5,2.5-14.8,10.2-14.8,19.6c0,11.2,9.1,20.4,20.4,20.4c11.2,0,20.4-9.1,20.4-20.4
	C300.7,207,294.4,199.1,285.9,196.7z M280.3,225.5c-5.1,0-9.2-4.1-9.2-9.2s4.1-9.2,9.2-9.2c5.1,0,9.2,4.1,9.2,9.2
	C289.6,221.3,285.4,225.5,280.3,225.5z"/>
<path class="st0" d="M229.2,147.1h33.9c12.2,0,22.2-9.9,22.2-22.2v-18.2c8.5-2.5,14.8-10.2,14.8-19.6c0-11.2-9.1-20.4-20.4-20.4
	c-11.2,0-20.4,9.1-20.4,20.4c0,9.3,6.3,17.1,14.8,19.6v18.2c0,6.1-5,11-11,11h-33.9c-3.1,0-5.6,2.5-5.6,5.6
	C223.6,144.6,226.2,147.1,229.2,147.1z M270.5,87.2c0-5.1,4.1-9.2,9.2-9.2s9.2,4.1,9.2,9.2s-4.1,9.2-9.2,9.2S270.5,92.3,270.5,87.2z
	"/>
<path class="st0" d="M84.2,283.3h18.2c12.2,0,22.2-9.9,22.2-22.2v-33.9c0-3.1-2.5-5.6-5.6-5.6c-3.1,0-5.6,2.5-5.6,5.6v33.9
	c0,6.1-5,11-11,11H84.2c-2.5-8.5-10.2-14.8-19.6-14.8c-11.2,0-20.4,9.1-20.4,20.4s9.1,20.4,20.4,20.4
	C73.9,298.1,81.8,291.9,84.2,283.3z M55.4,277.7c0-5.1,4.1-9.2,9.2-9.2s9.2,4.1,9.2,9.2c0,5.1-4.1,9.2-9.2,9.2
	C59.6,287,55.4,282.8,55.4,277.7z"/>
<path class="st0" d="M180.9,227.4v33.9c0,12.2,9.9,22.2,22.2,22.2h18.2c2.5,8.5,10.2,14.8,19.6,14.8c11.2,0,20.4-9.1,20.4-20.4
	c0-11.2-9.1-20.4-20.4-20.4c-9.3,0-17.1,6.3-19.6,14.8h-18.2c-6.1,0-11-5-11-11v-33.9c0-3.1-2.5-5.6-5.6-5.6
	C183.4,221.9,180.9,224.4,180.9,227.4z M240.8,268.7c5.1,0,9.2,4.1,9.2,9.2s-4.1,9.2-9.2,9.2s-9.2-4.1-9.2-9.2
	S235.7,268.7,240.8,268.7z"/>
<path class="st1" d="M154,152.6c-5.5-1.1-11.3,2-13.7,7.3c-2.4,5.5-0.8,11.6,4.1,15.2c1,0.8,1.2,1.4,1.2,2.5c0,5.5,0,10.8,0,16.3
	l0,0c0,4.5,4.7,7.9,9.5,5.5c2-1,3.2-3.2,3-5.5l0,0c0-5.5,0-10.8,0-16.3c0-1.2,0.3-1.9,1.3-2.7c3.4-2.5,5.1-6,5.1-10.2
	C164.4,158.8,160.1,153.8,154,152.6z"/>
<path class="st1" d="M217.1,101.8h-2.4v-33c0-36.6-28.3-66.3-63.1-66.3S88.4,32.2,88.4,68.8c0,4.6,3.6,8.4,8,8.4c4.4,0,8-3.8,8-8.4
	c0-27.4,21.2-49.7,47.3-49.7s47.3,22.3,47.3,49.7v33H86.1c-11.4,0-20.7,9.8-20.7,21.7v90.6c0,12,9.3,21.7,20.7,21.7H217
	c11.4,0,20.7-9.8,20.7-21.7v-90.6C237.7,111.5,228.5,101.8,217.1,101.8z M221.8,214c0,2.8-2.1,5-4.7,5h-131c-2.6,0-4.7-2.2-4.7-5
	v-90.6c0-2.8,2.1-5,4.7-5H217c2.6,0,4.7,2.2,4.7,5L221.8,214L221.8,214z"/>
</svg>
