<?xml version="1.0" encoding="utf-8"?>
<!-- Generator: Adobe Illustrator 21.1.0, SVG Export Plug-In . SVG Version: 6.00 Build 0)  -->
<svg version="1.1" id="Capa_1" xmlns="http://www.w3.org/2000/svg" xmlns:xlink="http://www.w3.org/1999/xlink" x="0px" y="0px"
	 viewBox="0 0 300 300" style="enable-background:new 0 0 300 300;" xml:space="preserve">
<style type="text/css">
	.st0{fill:#38E090;}
	.st1{fill:#FFFFFF;}
</style>
<g>
	<path class="st0" d="M250.1,176.1c16.8-16.8,26-39.1,26-62.9s-9.2-46.1-26-62.9s-39.1-26-62.9-26s-46.1,9.2-62.9,26
		s-26,39.1-26,62.9c0,23.8,9.2,46.1,26,62.9s39.1,26,62.9,26C211,202.1,233.3,192.8,250.1,176.1L250.1,176.1z M132.7,167.7
		c-14.6-14.6-22.6-33.9-22.6-54.5s8-39.9,22.6-54.5c30.1-30.1,79-30.1,109,0c14.6,14.6,22.6,33.9,22.6,54.5s-8,39.9-22.6,54.5
		C211.7,197.7,162.8,197.7,132.7,167.7z"/>
	<path class="st1" d="M246.5,149.2c1.7-2.8,0.8-6.4-2-8.1c-2.8-1.7-6.4-0.8-8.1,2c-2.4,3.9-5.2,7.5-8.5,10.8
		c-1.2,1.2-1.7,2.7-1.7,4.2s0.6,3,1.7,4.2c2.3,2.3,6.1,2.3,8.4,0C240.2,158.3,243.7,153.9,246.5,149.2z"/>
	<path class="st1" d="M226.2,68.3c0,1.5,0.6,3,1.7,4.2c12.9,12.9,19,31.5,16.2,49.6c-0.5,3.2,1.7,6.3,4.9,6.8
		c3.2,0.5,6.3-1.7,6.8-4.9c3.4-21.8-3.9-44.2-19.5-59.8c-2.3-2.3-6.1-2.3-8.4,0C226.7,65.3,226.2,66.8,226.2,68.3z"/>
	<path class="st1" d="M138.4,82.8c2.3-3.7,5.1-7.2,8.2-10.3c2.3-2.3,2.3-6.1,0-8.4c-2.3-2.3-6.1-2.3-8.4,0
		c-3.8,3.8-7.1,7.9-9.9,12.4c-0.6,1-0.9,2.1-0.9,3.1c0,2,1,3.9,2.8,5C133,86.4,136.7,85.6,138.4,82.8z"/>
	<path class="st1" d="M146.6,153.8C134,141.3,128,124,130.1,106.4c0.4-3.2-1.9-6.2-5.2-6.6c-3.2-0.4-6.2,1.9-6.6,5.2
		c-0.3,2.8-0.5,5.6-0.5,8.3c0,18.3,7.2,35.8,20.3,48.9c2.3,2.3,6.1,2.3,8.4,0C148.9,159.9,148.9,156.2,146.6,153.8L146.6,153.8z"/>
	<path class="st0" d="M42.4,292.8l71.6-71.6c2.3-2.3,2.3-6.1,0-8.4l-2.9-2.9l7-7c44.4,34.2,108.5,31,149.2-9.7
		c44.2-44.2,44.2-116,0-160.1c-44.2-44.2-116-44.2-160.1,0c-22.1,22.1-33.1,51.1-33.1,80.1c0,24.4,7.8,48.8,23.5,69.1l-7,7l-2.9-2.9
		c-1.1-1.1-2.6-1.7-4.2-1.7s-3.1,0.6-4.2,1.7L7.6,258.1c-4.8,4.8-7.2,11.1-7.2,17.4c0,6.3,2.4,12.6,7.2,17.4
		C17.2,302.4,32.8,302.4,42.4,292.8L42.4,292.8z M115.5,41.5c19.2-19.2,44.6-29.7,71.7-29.7s52.6,10.5,71.7,29.7
		c19.2,19.2,29.7,44.6,29.7,71.7s-10.5,52.6-29.7,71.7c-19.2,19.2-44.6,29.7-71.7,29.7s-52.6-10.5-71.7-29.7s-29.7-44.6-29.7-71.7
		S96.4,60.6,115.5,41.5L115.5,41.5z M105.2,191.3c0.6,0.7,1.3,1.3,1.9,2c0.7,0.7,1.3,1.3,2,1.9l-6.4,6.4l-3.9-3.9L105.2,191.3z
		 M16,284.4c-5-5-5-13,0-18L83.4,199l18,18L34,284.4C29,289.4,21,289.4,16,284.4z"/>
</g>
</svg>
