<svg xmlns:xlink="http://www.w3.org/1999/xlink" id="Capa_1" data-name="Capa 1" xmlns="http://www.w3.org/2000/svg" viewBox="0 0 81.33 76"><defs><style>.cls-3{fill:#f7434c}.cls-5{fill:#ffdb57}.cls-6{fill:#f5ba3d}.cls-7{fill:#ef9325}</style><clipPath id="clip-path"><path fill="none" d="M404.67-837.99h640v1136h-640z"/></clipPath></defs><g clip-path="url(#clip-path)"><image width="1920" height="1090" transform="matrix(1.04 0 0 1.04 -341.46 -838.67)" xlink:href="../../background-landing-estatico.png"/></g><path class="cls-3" d="M71 32.91H12A1.12 1.12 0 0 0 10.81 34v34.77a1.12 1.12 0 0 0 1.11 1.12H71a1.12 1.12 0 0 0 1.12-1.12V34A1.12 1.12 0 0 0 71 32.91z"/><path d="M71 32.91H12A1.12 1.12 0 0 0 10.81 34v4.48h61.28V34A1.12 1.12 0 0 0 71 32.91z" fill="#db2e37"/><path class="cls-5" d="M47.17 32.91H35.73A1.12 1.12 0 0 0 34.61 34v34.77a1.12 1.12 0 0 0 1.12 1.12h11.44a1.12 1.12 0 0 0 1.12-1.12V34a1.12 1.12 0 0 0-1.12-1.09z"/><path class="cls-6" d="M47.17 32.91H35.73A1.12 1.12 0 0 0 34.61 34v4.45h13.68V34a1.12 1.12 0 0 0-1.12-1.09z"/><path class="cls-5" d="M68.79 12.22a22.54 22.54 0 0 0-4.63-7.47 3.41 3.41 0 0 0-2.57-1c-3.36.08-8.84 4.3-16.28 12.54a1.12 1.12 0 0 0-.29.75V23a1.12 1.12 0 0 0 1.12 1.12h17.22c3.84 0 5.43-1.87 6.08-3.44.87-2.11.64-5.1-.65-8.46z"/><path class="cls-7" d="M69.43 14.17a1.3 1.3 0 0 0-.14-.32c-1.69-2.56-5.35-1.6-8.11-.35-8 3.64-11.36 8.65-11.5 8.87a1.13 1.13 0 0 0 .94 1.73h12.74c2.45 0 4.26-.75 5.39-2.23 1.34-1.76 1.58-4.42.68-7.7z"/><path class="cls-5" d="M37.59 16.3C30.15 8.06 24.67 3.84 21.31 3.76a3.41 3.41 0 0 0-2.57 1 22.54 22.54 0 0 0-4.63 7.47c-1.29 3.36-1.52 6.35-.65 8.44.65 1.57 2.24 3.44 6.08 3.44h17.22A1.12 1.12 0 0 0 37.88 23v-5.95a1.12 1.12 0 0 0-.29-.75z"/><path class="cls-7" d="M33.22 22.37c-.14-.22-3.46-5.23-11.5-8.87-2.76-1.25-6.42-2.21-8.11.35a1.3 1.3 0 0 0-.14.32c-.9 3.28-.66 5.94.68 7.7 1.13 1.48 2.94 2.23 5.39 2.23h12.74a1.13 1.13 0 0 0 .94-1.73z"/><path class="cls-6" d="M46.14 14.83h-9.38A1.12 1.12 0 0 0 35.64 16v7a1.12 1.12 0 0 0 1.12 1.12h9.38A1.12 1.12 0 0 0 47.26 23v-7a1.12 1.12 0 0 0-1.12-1.17z"/><path class="cls-3" d="M75.79 21.86H7.11A1.12 1.12 0 0 0 6 23v11a1.12 1.12 0 0 0 1.12 1.12h68.67A1.12 1.12 0 0 0 76.91 34V23a1.12 1.12 0 0 0-1.12-1.14z"/><path class="cls-5" d="M32.85 21.86h17.2v13.29h-17.2z"/></svg>