<svg id="Capa_1" data-name="Capa 1" xmlns="http://www.w3.org/2000/svg" viewBox="0 0 110 103"><defs><style>.cls-1{fill:#f7434c}.cls-3{fill:#ffdb57}.cls-4{fill:#f5ba3d}.cls-5{fill:#ef9325}</style></defs><path class="cls-1" d="M95.51 47.42H15.28a1.52 1.52 0 0 0-1.52 1.52v47.21a1.52 1.52 0 0 0 1.52 1.52h80.23A1.52 1.52 0 0 0 97 96.15V48.94a1.53 1.53 0 0 0-1.49-1.52z"/><path d="M95.51 47.42H15.28a1.52 1.52 0 0 0-1.52 1.52V55H97v-6.06a1.53 1.53 0 0 0-1.49-1.52z" fill="#db2e37"/><path class="cls-3" d="M63.17 47.42H47.62a1.52 1.52 0 0 0-1.52 1.52v47.21a1.52 1.52 0 0 0 1.52 1.52h15.55a1.52 1.52 0 0 0 1.52-1.52V48.94a1.52 1.52 0 0 0-1.52-1.52z"/><path class="cls-4" d="M63.17 47.42H47.62a1.52 1.52 0 0 0-1.52 1.52V55h18.59v-6.06a1.52 1.52 0 0 0-1.52-1.52z"/><path class="cls-3" d="M92.55 19.31a30.79 30.79 0 0 0-6.3-10.16 4.71 4.71 0 0 0-3.49-1.34c-4.56.11-12 5.84-22.12 17.05a1.5 1.5 0 0 0-.39 1v8.05a1.52 1.52 0 0 0 1.52 1.52h23.4c5.22 0 7.37-2.53 8.26-4.66 1.18-2.83.87-6.9-.88-11.46z"/><path class="cls-5" d="M93.42 22a1.58 1.58 0 0 0-.2-.44c-2.3-3.47-7.26-2.17-11-.47-10.94 4.91-15.45 11.72-15.64 12a1.52 1.52 0 0 0 1.28 2.35h17.31c3.32 0 5.78-1 7.32-3 1.82-2.44 2.14-6.02.93-10.44z"/><path class="cls-3" d="M50.15 24.86C40 13.65 32.6 7.92 28 7.81a4.71 4.71 0 0 0-3.49 1.34 30.79 30.79 0 0 0-6.3 10.16c-1.75 4.56-2.06 8.63-.87 11.47.88 2.13 3 4.66 8.25 4.66H49a1.52 1.52 0 0 0 1.52-1.52v-8a1.45 1.45 0 0 0-.37-1.06z"/><path class="cls-5" d="M44.21 33.09c-.18-.28-4.69-7.09-15.62-12-3.76-1.7-8.72-3-11 .47a1.58 1.58 0 0 0-.2.44c-1.21 4.46-.89 8.07.94 10.46 1.53 2 4 3 7.31 3h17.3a1.52 1.52 0 0 0 1.27-2.35z"/><path class="cls-4" d="M61.77 22.85H49a1.52 1.52 0 0 0-1.52 1.52v9.55A1.52 1.52 0 0 0 49 35.44h12.77a1.52 1.52 0 0 0 1.52-1.52v-9.55a1.52 1.52 0 0 0-1.52-1.52z"/><path class="cls-1" d="M102.06 32.4H8.74a1.53 1.53 0 0 0-1.52 1.53v15a1.52 1.52 0 0 0 1.52 1.52h93.32a1.52 1.52 0 0 0 1.52-1.52v-15a1.53 1.53 0 0 0-1.52-1.53z"/><path class="cls-3" d="M43.71 32.4h23.37v18.06H43.71z"/></svg>