<svg xmlns="http://www.w3.org/2000/svg" viewBox="0 0 51.41 42.33"><defs><style>.cls-1{fill:#320066}</style></defs><g id="Capa_2" data-name="Capa 2"><g id="Capa_1-2" data-name="Capa 1"><path class="cls-1" d="M26 7.73c8.66.09 14.09-.45 14.82 9.15h10.56C51.38 2 38.4 0 25.71 0S.05 2 .05 16.88h10.48C11.35 7.09 17.4 7.65 26 7.73zM5.29 21.66c2.57 0 4.72.16 5.19-2.38a5.9 5.9 0 0 0 .1-1.18H0c0 3.76 2.37 3.56 5.29 3.56zM40.88 18.1h-.1a5.85 5.85 0 0 0 .11 1.18c.51 2.34 2.64 2.19 5.21 2.19 2.93 0 5.31.2 5.31-3.37z"/><path class="cls-1" d="M35.72 15.54V14c0-.67-.77-.71-1.72-.71h-1.56c-.95 0-1.72 0-1.72.71v2.29h-11V14c0-.67-.77-.71-1.72-.71h-1.56c-1 0-1.72 0-1.72.71v2.8c-2.51 2.61-10.71 13.69-11 15v9a1.5 1.5 0 0 0 1.5 1.5h40a1.5 1.5 0 0 0 1.5-1.5v-9c-.3-1.31-8.49-12.38-11-15zM19.18 33.08a1.46 1.46 0 1 1 1.46-1.46 1.46 1.46 0 0 1-1.46 1.46zm0-5a1.46 1.46 0 1 1 1.46-1.46 1.46 1.46 0 0 1-1.46 1.46zm0-5a1.46 1.46 0 1 1 1.46-1.46 1.46 1.46 0 0 1-1.46 1.46zm6 10a1.46 1.46 0 1 1 1.46-1.46 1.46 1.46 0 0 1-1.46 1.46zm0-5a1.46 1.46 0 1 1 1.46-1.46 1.46 1.46 0 0 1-1.46 1.46zm0-5a1.46 1.46 0 1 1 1.46-1.46 1.46 1.46 0 0 1-1.46 1.46zm6 10a1.46 1.46 0 1 1 1.45-1.46 1.46 1.46 0 0 1-1.45 1.46zm0-5a1.46 1.46 0 1 1 1.45-1.46 1.46 1.46 0 0 1-1.45 1.46zm0-5a1.46 1.46 0 1 1 1.45-1.46 1.46 1.46 0 0 1-1.45 1.46z"/></g></g></svg>