<svg xmlns="http://www.w3.org/2000/svg" viewBox="0 0 1000 1000"><path d="M34.5 10v980V10zM59 10v980V10zM83.5 10v980V10zM108 10v980V10zM132.5 10v980V10zM157 10v980V10zM181.5 10v980V10zM206 10v980V10zM230.5 10v980V10zM255 10v980V10zM279.5 10v980V10zM304 10v980V10zM328.5 10v980V10zM353 10v980V10zM377.5 10v980V10zM402 10v980V10zM426.5 10v980V10zM451 10v980V10zM475.5 10v980V10zM500 10v980V10zM524.5 10v980V10zM549 10v980V10zM573.5 10v980V10zM598 10v980V10zM622.5 10v980V10zM647 10v980V10zM671.5 10v980V10zM696 10v980V10zM720.5 10v980V10zM745 10v980V10zM769.5 10v980V10zM794 10v980V10zM818.5 10v980V10zM843 10v980V10zM867.5 10v980V10zM892 10v980V10zM916.5 10v980V10zM941 10v980V10zM965.5 10v980V10zM10 34.5h980H10zM10 59h980H10zM10 83.5h980H10zM10 108h980H10zM10 132.5h980H10zM10 157h980H10zM10 181.5h980H10zM10 206h980H10zM10 230.5h980H10zM10 255h980H10zM10 279.5h980H10zM10 304h980H10zM10 328.5h980H10zM10 353h980H10zM10 377.5h980H10zM10 402h980H10zM10 426.5h980H10zM10 451h980H10zM10 475.5h980H10zM10 500h980H10zM10 524.5h980H10zM10 549h980H10zM10 573.5h980H10zM10 598h980H10zM10 622.5h980H10zM10 647h980H10zM10 671.5h980H10zM10 696h980H10zM10 720.5h980H10zM10 745h980H10zM10 769.5h980H10zM10 794h980H10zM10 818.5h980H10zM10 843h980H10zM10 867.5h980H10zM10 892h980H10zM10 916.5h980H10zM10 941h980H10zM10 965.5h980H10zM768.7 570.4c-19.9-20.5-230.1-220.6-230.1-220.6-10.7-10.9-24.6-16.4-38.6-16.4s-28 5.5-38.6 16.4c0 0-210.1 200.1-230.1 220.6-19.9 20.5-21.3 57.3 0 79.2 21.4 21.8 51.1 23.6 77.2 0L500 466l191.4 183.6c26.2 23.6 56 21.8 77.2 0 21.4-21.9 20.1-58.8.1-79.2z"/></svg>